<svg width="47" height="36" viewBox="0 0 47 36" fill="none" xmlns="http://www.w3.org/2000/svg">
<g clip-path="url(#clip0_1343_14655)">
<path d="M41.9258 25.0002C41.9258 25.0002 41.9258 25.0002 41.9258 24.1502C41.9258 19.6202 42.1303 20.2502 43.2759 16.9502C44.7693 16.7502 45.966 15.5102 45.966 13.9902C45.966 12.3302 44.6363 10.9902 42.9384 10.9902C41.2404 10.9902 39.8698 12.3302 39.8698 13.9902C39.8698 14.6902 40.1255 15.3202 40.5347 15.8302L36.8013 18.9902L34.7556 11.9902C35.8807 11.5502 36.8013 10.2502 36.8013 8.99023C36.8013 7.33023 35.4307 5.99023 33.7327 5.99023C32.0348 5.99023 30.6642 7.33023 30.6642 8.99023C30.6642 10.0102 31.1858 10.9102 31.9836 11.4502L28.6185 17.9902L25.5499 5.99023C26.1432 5.44023 26.5728 4.85023 26.5728 3.99023C26.5728 2.33023 25.2021 0.990234 23.5042 0.990234H23.4838C21.7858 0.990234 20.4357 2.33023 20.4357 3.99023C20.4357 4.85023 20.8653 5.44023 21.4585 5.99023L18.39 17.9902L14.9839 11.4502C15.7817 10.9102 16.3033 10.0102 16.3033 8.99023C16.3033 7.33023 14.9327 5.99023 13.2348 5.99023C11.5369 5.99023 10.1662 7.33023 10.1662 8.99023C10.1662 10.2502 11.0868 11.5502 12.2119 11.9902L10.2071 17.9902L6.43283 15.8302C6.84197 15.3202 7.09768 14.6902 7.09768 13.9902C7.09768 12.3302 5.72706 10.9902 4.02913 10.9902C2.3312 10.9902 1.01172 12.3302 1.01172 13.9902C1.01172 15.5102 2.21868 16.7502 3.71205 16.9502C4.85764 20.2402 5.09289 19.6202 5.09289 24.1502C5.09289 25.0002 5.09289 25.0002 5.09289 25.0002" stroke="#654595" stroke-width="1.6"/>
<path d="M5.10547 27V31C5.10547 32.78 13.2474 35 23.5168 35" stroke="#654595" stroke-width="1.6"/>
<path d="M41.9269 27V31C41.9269 32.78 33.785 35 23.5156 35" stroke="#654595" stroke-width="1.6"/>
<path d="M39.8797 26.6602C36.8316 27.9202 30.6945 29.0002 23.5141 29.0002C16.3336 29.0002 10.1965 27.9202 7.14844 26.6602" stroke="#654595" stroke-width="1.6"/>
</g>
<defs>
<clipPath id="clip0_1343_14655">
<rect width="47" height="36" fill="white"/>
</clipPath>
</defs>
</svg>
