<svg width="322" height="104" viewBox="0 0 322 104" fill="none" xmlns="http://www.w3.org/2000/svg">
<mask id="path-1-outside-1_1343_14731" maskUnits="userSpaceOnUse" x="0" y="-1" width="323" height="106" fill="black">
<rect fill="white" y="-1" width="323" height="106"/>
<path d="M1.04 91.22C1.04 85.06 2.11333 79.6933 4.26 75.12C6.40667 70.5467 9.06667 66.5333 12.24 63.08C15.4133 59.5333 18.8667 56.4533 22.6 53.84C26.4267 51.1333 29.9267 48.66 33.1 46.42C36.2733 44.18 38.9333 42.0333 41.08 39.98C43.2267 37.9267 44.3 35.6867 44.3 33.26C44.3 29.8067 43.1333 27.2867 40.8 25.7C38.56 24.1133 36.1333 23.32 33.52 23.32C31.28 23.32 29.2267 23.8333 27.36 24.86C25.5867 25.7933 24.0933 26.9133 22.88 28.22C21.1067 29.9 19.2867 31.02 17.42 31.58C15.6467 32.0467 13.8267 31.4867 11.96 29.9L6.5 25.56C2.39333 22.2933 1.74 18.84 4.54 15.2C5.75333 13.6133 7.29333 11.9333 9.16 10.16C11.0267 8.38666 13.22 6.8 15.74 5.39999C18.26 3.90666 21.1533 2.69333 24.42 1.76C27.78 0.733327 31.56 0.219992 35.76 0.219992C39.8667 0.219992 43.9267 0.826659 47.94 2.03999C52.0467 3.25333 55.7333 5.12 59 7.64C62.2667 10.0667 64.88 13.24 66.84 17.16C68.8933 20.9867 69.92 25.56 69.92 30.88C69.92 36.1067 68.8933 40.68 66.84 44.6C64.88 48.4267 62.36 51.88 59.28 54.96C56.2933 57.9467 53.0267 60.6067 49.48 62.94C45.9333 65.18 42.62 67.28 39.54 69.24C36.46 71.2 33.8467 73.1133 31.7 74.98C29.5533 76.8467 28.3867 78.8533 28.2 81H63.76C68.8933 81 71.46 83.5667 71.46 88.7V94.3C71.46 99.4333 68.8933 102 63.76 102H9.3C6.87333 102 4.86667 101.347 3.28 100.04C1.78667 98.7333 1.04 96.82 1.04 94.3V91.22ZM121.171 103.68C114.078 103.68 108.104 102.327 103.251 99.62C98.4909 96.9133 94.6176 93.2267 91.6309 88.56C88.7376 83.8 86.6376 78.2933 85.3309 72.04C84.1176 65.6933 83.5109 58.9267 83.5109 51.74C83.5109 44.5533 84.1176 37.8333 85.3309 31.58C86.6376 25.3267 88.7376 19.8667 91.6309 15.2C94.6176 10.5333 98.4909 6.89333 103.251 4.28C108.104 1.57333 114.078 0.219992 121.171 0.219992C128.264 0.219992 134.191 1.57333 138.951 4.28C143.804 6.89333 147.678 10.5333 150.571 15.2C153.558 19.8667 155.658 25.3267 156.871 31.58C158.178 37.8333 158.831 44.5533 158.831 51.74C158.831 58.9267 158.178 65.6933 156.871 72.04C155.658 78.2933 153.558 83.8 150.571 88.56C147.678 93.2267 143.804 96.9133 138.951 99.62C134.191 102.327 128.264 103.68 121.171 103.68ZM121.171 81.28C123.598 81.28 125.604 80.5333 127.191 79.04C128.778 77.4533 130.038 75.3533 130.971 72.74C131.998 70.0333 132.698 66.9067 133.071 63.36C133.444 59.72 133.631 55.8467 133.631 51.74C133.631 47.7267 133.444 43.9467 133.071 40.4C132.698 36.8533 131.998 33.7733 130.971 31.16C130.038 28.4533 128.778 26.3533 127.191 24.86C125.604 23.3667 123.598 22.62 121.171 22.62C118.744 22.62 116.738 23.3667 115.151 24.86C113.564 26.3533 112.258 28.4533 111.231 31.16C110.298 33.7733 109.644 36.8533 109.271 40.4C108.898 43.9467 108.711 47.7267 108.711 51.74C108.711 55.8467 108.898 59.72 109.271 63.36C109.644 66.9067 110.298 70.0333 111.231 72.74C112.258 75.3533 113.564 77.4533 115.151 79.04C116.738 80.5333 118.744 81.28 121.171 81.28ZM170.161 91.22C170.161 85.06 171.234 79.6933 173.381 75.12C175.528 70.5467 178.188 66.5333 181.361 63.08C184.534 59.5333 187.988 56.4533 191.721 53.84C195.548 51.1333 199.048 48.66 202.221 46.42C205.394 44.18 208.054 42.0333 210.201 39.98C212.348 37.9267 213.421 35.6867 213.421 33.26C213.421 29.8067 212.254 27.2867 209.921 25.7C207.681 24.1133 205.254 23.32 202.641 23.32C200.401 23.32 198.348 23.8333 196.481 24.86C194.708 25.7933 193.214 26.9133 192.001 28.22C190.228 29.9 188.408 31.02 186.541 31.58C184.768 32.0467 182.948 31.4867 181.081 29.9L175.621 25.56C171.514 22.2933 170.861 18.84 173.661 15.2C174.874 13.6133 176.414 11.9333 178.281 10.16C180.148 8.38666 182.341 6.8 184.861 5.39999C187.381 3.90666 190.274 2.69333 193.541 1.76C196.901 0.733327 200.681 0.219992 204.881 0.219992C208.988 0.219992 213.048 0.826659 217.061 2.03999C221.168 3.25333 224.854 5.12 228.121 7.64C231.388 10.0667 234.001 13.24 235.961 17.16C238.014 20.9867 239.041 25.56 239.041 30.88C239.041 36.1067 238.014 40.68 235.961 44.6C234.001 48.4267 231.481 51.88 228.401 54.96C225.414 57.9467 222.148 60.6067 218.601 62.94C215.054 65.18 211.741 67.28 208.661 69.24C205.581 71.2 202.968 73.1133 200.821 74.98C198.674 76.8467 197.508 78.8533 197.321 81H232.881C238.014 81 240.581 83.5667 240.581 88.7V94.3C240.581 99.4333 238.014 102 232.881 102H178.421C175.994 102 173.988 101.347 172.401 100.04C170.908 98.7333 170.161 96.82 170.161 94.3V91.22ZM251.372 91.22C251.372 85.06 252.445 79.6933 254.592 75.12C256.739 70.5467 259.399 66.5333 262.572 63.08C265.745 59.5333 269.199 56.4533 272.932 53.84C276.759 51.1333 280.259 48.66 283.432 46.42C286.605 44.18 289.265 42.0333 291.412 39.98C293.559 37.9267 294.632 35.6867 294.632 33.26C294.632 29.8067 293.465 27.2867 291.132 25.7C288.892 24.1133 286.465 23.32 283.852 23.32C281.612 23.32 279.559 23.8333 277.692 24.86C275.919 25.7933 274.425 26.9133 273.212 28.22C271.439 29.9 269.619 31.02 267.752 31.58C265.979 32.0467 264.159 31.4867 262.292 29.9L256.832 25.56C252.725 22.2933 252.072 18.84 254.872 15.2C256.085 13.6133 257.625 11.9333 259.492 10.16C261.359 8.38666 263.552 6.8 266.072 5.39999C268.592 3.90666 271.485 2.69333 274.752 1.76C278.112 0.733327 281.892 0.219992 286.092 0.219992C290.199 0.219992 294.259 0.826659 298.272 2.03999C302.379 3.25333 306.065 5.12 309.332 7.64C312.599 10.0667 315.212 13.24 317.172 17.16C319.225 20.9867 320.252 25.56 320.252 30.88C320.252 36.1067 319.225 40.68 317.172 44.6C315.212 48.4267 312.692 51.88 309.612 54.96C306.625 57.9467 303.359 60.6067 299.812 62.94C296.265 65.18 292.952 67.28 289.872 69.24C286.792 71.2 284.179 73.1133 282.032 74.98C279.885 76.8467 278.719 78.8533 278.532 81H314.092C319.225 81 321.792 83.5667 321.792 88.7V94.3C321.792 99.4333 319.225 102 314.092 102H259.632C257.205 102 255.199 101.347 253.612 100.04C252.119 98.7333 251.372 96.82 251.372 94.3V91.22Z"/>
</mask>
<path d="M4.26 75.12L5.16524 75.5449L4.26 75.12ZM12.24 63.08L12.9764 63.7567L12.9852 63.7468L12.24 63.08ZM22.6 53.84L23.1735 54.6592L23.1775 54.6564L22.6 53.84ZM33.1 46.42L33.6767 47.237L33.1 46.42ZM41.08 39.98L41.7712 40.7026L41.08 39.98ZM40.8 25.7L40.222 26.516L40.2298 26.5215L40.2377 26.5269L40.8 25.7ZM27.36 24.86L27.8257 25.7449L27.8339 25.7406L27.8419 25.7362L27.36 24.86ZM22.88 28.22L23.5677 28.9459L23.591 28.9239L23.6128 28.9005L22.88 28.22ZM17.42 31.58L17.6745 32.5471L17.691 32.5427L17.7073 32.5378L17.42 31.58ZM11.96 29.9L12.6077 29.1381L12.5951 29.1274L12.5822 29.1172L11.96 29.9ZM6.5 25.56L5.87748 26.3426L5.87776 26.3428L6.5 25.56ZM4.54 15.2L5.33263 15.8097L5.33436 15.8074L4.54 15.2ZM15.74 5.39999L16.2256 6.27415L16.2378 6.26738L16.2498 6.26028L15.74 5.39999ZM24.42 1.76L24.6947 2.72152L24.7035 2.71901L24.7122 2.71635L24.42 1.76ZM47.94 2.03999L47.6506 2.99722L47.6567 2.99901L47.94 2.03999ZM59 7.64L58.3892 8.43178L58.3964 8.43732L58.4037 8.44274L59 7.64ZM66.84 17.16L65.9456 17.6072L65.952 17.6201L65.9588 17.6328L66.84 17.16ZM66.84 44.6L65.9541 44.136L65.95 44.1441L66.84 44.6ZM59.28 54.96L58.5729 54.2529L59.28 54.96ZM49.48 62.94L50.014 63.7855L50.0219 63.7805L50.0296 63.7754L49.48 62.94ZM39.54 69.24L40.0769 70.0837L39.54 69.24ZM31.7 74.98L32.3562 75.7346L31.7 74.98ZM28.2 81L27.2038 80.9134L27.1093 82H28.2V81ZM3.28 100.04L2.6215 100.793L2.63275 100.802L2.64429 100.812L3.28 100.04ZM2.04 91.22C2.04 85.1753 3.09314 79.9594 5.16524 75.5449L3.35476 74.6951C1.13353 79.4273 0.0400004 84.9447 0.0400004 91.22H2.04ZM5.16524 75.5449C7.27205 71.0565 9.87687 67.1296 12.9763 63.7566L11.5037 62.4034C8.25647 65.9371 5.54129 70.0368 3.35476 74.6951L5.16524 75.5449ZM12.9852 63.7468C16.1096 60.2548 19.5058 57.2266 23.1735 54.6592L22.0265 53.0208C18.2276 55.6801 14.717 58.8118 11.4948 62.4132L12.9852 63.7468ZM23.1775 54.6564C27.0039 51.9499 30.5037 49.4767 33.6767 47.237L32.5233 45.603C29.3497 47.8432 25.8494 50.3168 22.0225 53.0236L23.1775 54.6564ZM33.6767 47.237C36.8789 44.9766 39.5798 42.7988 41.7712 40.7026L40.3888 39.2574C38.2868 41.2679 35.6677 43.3834 32.5233 45.603L33.6767 47.237ZM41.7712 40.7026C44.0678 38.5059 45.3 36.0188 45.3 33.26H43.3C43.3 35.3545 42.3856 37.3474 40.3888 39.2574L41.7712 40.7026ZM45.3 33.26C45.3 29.5599 44.0325 26.6888 41.3623 24.8731L40.2377 26.5269C42.2342 27.8845 43.3 30.0535 43.3 33.26H45.3ZM41.378 24.884C38.9781 23.184 36.3512 22.32 33.52 22.32V24.32C35.9155 24.32 38.1419 25.0426 40.222 26.516L41.378 24.884ZM33.52 22.32C31.1205 22.32 28.9001 22.8717 26.8781 23.9838L27.8419 25.7362C29.5533 24.795 31.4395 24.32 33.52 24.32V22.32ZM26.8943 23.9751C25.0333 24.9546 23.4463 26.1406 22.1472 27.5395L23.6128 28.9005C24.7404 27.6861 26.1401 26.6321 27.8257 25.7449L26.8943 23.9751ZM22.1923 27.494C20.5043 29.0931 18.8164 30.117 17.1327 30.6222L17.7073 32.5378C19.7569 31.923 21.709 30.7069 23.5677 28.9459L22.1923 27.494ZM17.1655 30.6129C15.8094 30.9698 14.3171 30.5911 12.6077 29.1381L11.3124 30.6619C13.3362 32.3822 15.484 33.1235 17.6745 32.5471L17.1655 30.6129ZM12.5822 29.1172L7.12224 24.7772L5.87776 26.3428L11.3378 30.6828L12.5822 29.1172ZM7.12252 24.7774C5.16719 23.222 4.17718 21.7328 3.91257 20.3341C3.65399 18.9673 4.04996 17.4772 5.33262 15.8097L3.74738 14.5903C2.23004 16.5628 1.55268 18.6194 1.94743 20.7059C2.33615 22.7606 3.72615 24.6313 5.87748 26.3426L7.12252 24.7774ZM5.33436 15.8074C6.50803 14.2726 8.01002 12.6318 9.84875 10.885L8.47125 9.435C6.57665 11.2349 4.99864 12.954 3.74564 14.5925L5.33436 15.8074ZM9.84875 10.885C11.6475 9.1762 13.7707 7.63801 16.2256 6.27415L15.2544 4.52584C12.6693 5.96198 10.4058 7.59713 8.47125 9.435L9.84875 10.885ZM16.2498 6.26028C18.6855 4.81693 21.4976 3.63498 24.6947 2.72152L24.1453 0.798473C20.809 1.75168 17.8345 2.9964 15.2302 4.5397L16.2498 6.26028ZM24.7122 2.71635C27.9611 1.72362 31.6403 1.21999 35.76 1.21999V-0.780008C31.4797 -0.780008 27.5989 -0.256968 24.1278 0.803646L24.7122 2.71635ZM35.76 1.21999C39.7666 1.21999 43.7291 1.81164 47.6506 2.9972L48.2294 1.08278C44.1242 -0.158323 39.9668 -0.780008 35.76 -0.780008V1.21999ZM47.6567 2.99901C51.6493 4.17867 55.2241 5.99014 58.3892 8.43178L59.6108 6.84821C56.2426 4.24985 52.444 2.32799 48.2234 1.08097L47.6567 2.99901ZM58.4037 8.44274C61.5349 10.7688 64.0502 13.8164 65.9456 17.6072L67.7344 16.7128C65.7098 12.6636 62.9984 9.36451 59.5963 6.83725L58.4037 8.44274ZM65.9588 17.6328C67.9185 21.2849 68.92 25.6883 68.92 30.88H70.92C70.92 25.4317 69.8682 20.6885 67.7212 16.6872L65.9588 17.6328ZM68.92 30.88C68.92 35.9743 67.92 40.383 65.9542 44.136L67.7258 45.064C69.8666 40.977 70.92 36.2391 70.92 30.88H68.92ZM65.95 44.1441C64.0381 47.8768 61.5802 51.2456 58.5729 54.2529L59.9871 55.6671C63.1398 52.5144 65.7219 48.9765 67.73 45.0559L65.95 44.1441ZM58.5729 54.2529C55.6345 57.1913 52.4206 59.8084 48.9304 62.1046L50.0296 63.7754C53.6327 61.405 56.9522 58.702 59.9871 55.6671L58.5729 54.2529ZM48.946 62.0945C45.3985 64.335 42.0842 66.4356 39.0031 68.3963L40.0769 70.0837C43.1558 68.1244 46.4682 66.025 50.014 63.7855L48.946 62.0945ZM39.0031 68.3963C35.8923 70.376 33.2368 72.3185 31.0438 74.2254L32.3562 75.7346C34.4566 73.9082 37.0277 72.024 40.0769 70.0837L39.0031 68.3963ZM31.0438 74.2254C28.7661 76.206 27.4194 78.4341 27.2038 80.9134L29.1962 81.0866C29.354 79.2726 30.3406 77.4873 32.3562 75.7346L31.0438 74.2254ZM28.2 82H63.76V80H28.2V82ZM63.76 82C66.1725 82 67.7982 82.6025 68.8279 83.6321C69.8576 84.6618 70.46 86.2875 70.46 88.7H72.46C72.46 85.9792 71.7791 83.7549 70.2421 82.2179C68.7051 80.6809 66.4808 80 63.76 80V82ZM70.46 88.7V94.3H72.46V88.7H70.46ZM70.46 94.3C70.46 96.7125 69.8576 98.3382 68.8279 99.3679C67.7982 100.398 66.1725 101 63.76 101V103C66.4808 103 68.7051 102.319 70.2421 100.782C71.7791 99.2451 72.46 97.0208 72.46 94.3H70.46ZM63.76 101H9.3V103H63.76V101ZM9.3 101C7.06146 101 5.2922 100.402 3.91571 99.2681L2.64429 100.812C4.44113 102.292 6.68521 103 9.3 103V101ZM3.9385 99.2874C2.71804 98.2195 2.04 96.6152 2.04 94.3H0.0400004C0.0400004 97.0248 0.855295 99.2471 2.6215 100.793L3.9385 99.2874ZM2.04 94.3V91.22H0.0400004V94.3H2.04ZM103.251 99.62L102.757 100.489L102.764 100.493L103.251 99.62ZM91.6309 88.56L90.7764 89.0794L90.7824 89.0893L90.7887 89.0991L91.6309 88.56ZM85.3309 72.04L84.3487 72.2278L84.3503 72.2362L84.3521 72.2445L85.3309 72.04ZM85.3309 31.58L84.3521 31.3755L84.3506 31.3825L84.3492 31.3895L85.3309 31.58ZM91.6309 15.2L90.7887 14.6609L90.7848 14.667L90.781 14.6731L91.6309 15.2ZM103.251 4.28L103.732 5.1566L103.738 5.15336L103.251 4.28ZM138.951 4.28L138.457 5.14929L138.467 5.15499L138.477 5.16047L138.951 4.28ZM150.571 15.2L149.721 15.7269L149.725 15.733L149.729 15.7391L150.571 15.2ZM156.871 31.58L155.889 31.7705L155.891 31.7775L155.892 31.7845L156.871 31.58ZM156.871 72.04L155.891 71.8383L155.889 71.8495L156.871 72.04ZM150.571 88.56L149.724 88.0285L149.721 88.0331L150.571 88.56ZM138.951 99.62L138.464 98.7466L138.457 98.7507L138.951 99.62ZM127.191 79.04L127.876 79.7682L127.887 79.7578L127.898 79.7471L127.191 79.04ZM130.971 72.74L130.036 72.3853L130.032 72.3945L130.029 72.4037L130.971 72.74ZM133.071 63.36L134.065 63.4647L134.066 63.462L133.071 63.36ZM133.071 40.4L134.065 40.2953L133.071 40.4ZM130.971 31.16L130.026 31.486L130.032 31.506L130.04 31.5256L130.971 31.16ZM127.191 24.86L126.506 25.5882L127.191 24.86ZM115.151 24.86L115.836 25.5882L115.151 24.86ZM111.231 31.16L110.296 30.8053L110.292 30.8145L110.289 30.8237L111.231 31.16ZM109.271 40.4L110.265 40.5047L109.271 40.4ZM109.271 63.36L108.276 63.462L108.276 63.4647L109.271 63.36ZM111.231 72.74L110.286 73.066L110.292 73.086L110.3 73.1057L111.231 72.74ZM115.151 79.04L114.444 79.7471L114.455 79.7578L114.466 79.7682L115.151 79.04ZM121.171 102.68C114.202 102.68 108.407 101.35 103.738 98.7466L102.764 100.493C107.802 103.303 113.953 104.68 121.171 104.68V102.68ZM103.745 98.7507C99.128 96.1252 95.3735 92.5526 92.4732 88.0209L90.7887 89.0991C93.8617 93.9007 97.8538 97.7014 102.757 100.489L103.745 98.7507ZM92.4855 88.0406C89.6591 83.3908 87.5966 77.9936 86.3098 71.8355L84.3521 72.2445C85.6786 78.593 87.8161 84.2092 90.7764 89.0794L92.4855 88.0406ZM86.3131 71.8522C85.1129 65.5739 84.5109 58.8706 84.5109 51.74H82.5109C82.5109 58.9828 83.1223 65.8128 84.3487 72.2278L86.3131 71.8522ZM84.5109 51.74C84.5109 44.6093 85.1129 37.9537 86.3126 31.7705L84.3492 31.3895C83.1223 37.713 82.5109 44.4974 82.5109 51.74H84.5109ZM86.3098 31.7845C87.5964 25.627 89.6581 20.2797 92.4808 15.7269L90.781 14.6731C87.8171 19.4536 85.6788 25.0263 84.3521 31.3755L86.3098 31.7845ZM92.4732 15.7391C95.3716 11.2103 99.122 7.68769 103.732 5.15658L102.77 3.40342C97.8599 6.09898 93.8636 9.85632 90.7887 14.6609L92.4732 15.7391ZM103.738 5.15336C108.407 2.54963 114.202 1.21999 121.171 1.21999V-0.780008C113.953 -0.780008 107.802 0.597031 102.764 3.40664L103.738 5.15336ZM121.171 1.21999C128.141 1.21999 133.885 2.54998 138.457 5.14929L139.445 3.41071C134.496 0.596676 128.388 -0.780008 121.171 -0.780008V1.21999ZM138.477 5.16047C143.177 7.6912 146.92 11.2096 149.721 15.7269L151.421 14.6731C148.435 9.8571 144.432 6.09546 139.425 3.39953L138.477 5.16047ZM149.729 15.7391C152.638 20.2847 154.696 25.6227 155.889 31.7705L157.853 31.3895C156.619 25.0306 154.477 19.4486 151.413 14.6609L149.729 15.7391ZM155.892 31.7845C157.183 37.9629 157.831 44.6137 157.831 51.74H159.831C159.831 44.493 159.172 37.7038 157.85 31.3755L155.892 31.7845ZM157.831 51.74C157.831 58.8662 157.183 65.5648 155.891 71.8383L157.85 72.2417C159.172 65.8219 159.831 58.9872 159.831 51.74H157.831ZM155.889 71.8495C154.696 77.9979 152.637 83.3859 149.724 88.0285L151.418 89.0915C154.478 84.2141 156.619 78.5888 157.853 72.2305L155.889 71.8495ZM149.721 88.0331C146.918 92.5535 143.171 96.1217 138.464 98.7466L139.438 100.493C144.438 97.705 148.437 93.8998 151.421 89.0869L149.721 88.0331ZM138.457 98.7507C133.885 101.35 128.141 102.68 121.171 102.68V104.68C128.388 104.68 134.496 103.303 139.445 100.489L138.457 98.7507ZM121.171 82.28C123.821 82.28 126.082 81.4565 127.876 79.7682L126.506 78.3118C125.126 79.6101 123.374 80.28 121.171 80.28V82.28ZM127.898 79.7471C129.611 78.034 130.941 75.7969 131.913 73.0763L130.029 72.4037C129.134 74.9098 127.944 76.8727 126.484 78.3329L127.898 79.7471ZM131.906 73.0947C132.969 70.2915 133.685 67.0779 134.065 63.4647L132.076 63.2553C131.71 66.7354 131.026 69.7751 130.036 72.3853L131.906 73.0947ZM134.066 63.462C134.443 59.7843 134.631 55.8767 134.631 51.74H132.631C132.631 55.8166 132.446 59.6557 132.076 63.258L134.066 63.462ZM134.631 51.74C134.631 47.696 134.443 43.8807 134.065 40.2953L132.076 40.5047C132.446 44.0126 132.631 47.7574 132.631 51.74H134.631ZM134.065 40.2953C133.685 36.6821 132.969 33.5104 131.902 30.7943L130.04 31.5256C131.027 34.0363 131.71 37.0246 132.076 40.5047L134.065 40.2953ZM131.916 30.834C130.946 28.0206 129.612 25.7655 127.876 24.1318L126.506 25.5882C127.943 26.9412 129.129 28.8861 130.026 31.486L131.916 30.834ZM127.876 24.1318C126.082 22.4435 123.821 21.62 121.171 21.62V23.62C123.374 23.62 125.126 24.2899 126.506 25.5882L127.876 24.1318ZM121.171 21.62C118.521 21.62 116.259 22.4435 114.466 24.1318L115.836 25.5882C117.216 24.2899 118.968 23.62 121.171 23.62V21.62ZM114.466 24.1318C112.738 25.7574 111.36 28.0014 110.296 30.8053L112.166 31.5146C113.156 28.9053 114.39 26.9492 115.836 25.5882L114.466 24.1318ZM110.289 30.8237C109.323 33.5295 108.656 36.6908 108.276 40.2953L110.265 40.5047C110.633 37.0159 111.272 34.0171 112.173 31.4963L110.289 30.8237ZM108.276 40.2953C107.899 43.8807 107.711 47.696 107.711 51.74H109.711C109.711 47.7574 109.896 44.0126 110.265 40.5047L108.276 40.2953ZM107.711 51.74C107.711 55.8767 107.899 59.7843 108.276 63.462L110.266 63.258C109.896 59.6557 109.711 55.8166 109.711 51.74H107.711ZM108.276 63.4647C108.656 67.0692 109.322 70.2727 110.286 73.066L112.176 72.414C111.273 69.794 110.633 66.7441 110.265 63.2553L108.276 63.4647ZM110.3 73.1057C111.365 75.8158 112.739 78.0421 114.444 79.7471L115.858 78.3329C114.39 76.8646 113.15 74.8908 112.162 72.3743L110.3 73.1057ZM114.466 79.7682C116.259 81.4565 118.521 82.28 121.171 82.28V80.28C118.968 80.28 117.216 79.6101 115.836 78.3118L114.466 79.7682ZM173.381 75.12L174.286 75.5449L173.381 75.12ZM181.361 63.08L182.097 63.7567L182.106 63.7468L181.361 63.08ZM191.721 53.84L192.295 54.6592L192.299 54.6564L191.721 53.84ZM202.221 46.42L202.798 47.237L202.221 46.42ZM210.201 39.98L210.892 40.7026L210.201 39.98ZM209.921 25.7L209.343 26.516L209.351 26.5215L209.359 26.5269L209.921 25.7ZM196.481 24.86L196.947 25.7449L196.955 25.7406L196.963 25.7362L196.481 24.86ZM192.001 28.22L192.689 28.9459L192.712 28.9239L192.734 28.9005L192.001 28.22ZM186.541 31.58L186.796 32.5471L186.812 32.5427L186.828 32.5378L186.541 31.58ZM181.081 29.9L181.729 29.1381L181.716 29.1274L181.703 29.1172L181.081 29.9ZM175.621 25.56L174.999 26.3426L174.999 26.3428L175.621 25.56ZM173.661 15.2L174.454 15.8097L174.455 15.8074L173.661 15.2ZM184.861 5.39999L185.347 6.27415L185.359 6.26738L185.371 6.26028L184.861 5.39999ZM193.541 1.76L193.816 2.72152L193.825 2.71901L193.833 2.71635L193.541 1.76ZM217.061 2.03999L216.772 2.99722L216.778 2.99901L217.061 2.03999ZM228.121 7.64L227.51 8.43178L227.517 8.43732L227.525 8.44274L228.121 7.64ZM235.961 17.16L235.067 17.6072L235.073 17.6201L235.08 17.6328L235.961 17.16ZM235.961 44.6L235.075 44.136L235.071 44.1441L235.961 44.6ZM228.401 54.96L227.694 54.2529L228.401 54.96ZM218.601 62.94L219.135 63.7855L219.143 63.7805L219.151 63.7754L218.601 62.94ZM208.661 69.24L209.198 70.0837L208.661 69.24ZM200.821 74.98L201.477 75.7346L200.821 74.98ZM197.321 81L196.325 80.9134L196.23 82H197.321V81ZM172.401 100.04L171.743 100.793L171.754 100.802L171.765 100.812L172.401 100.04ZM171.161 91.22C171.161 85.1753 172.214 79.9594 174.286 75.5449L172.476 74.6951C170.255 79.4273 169.161 84.9447 169.161 91.22H171.161ZM174.286 75.5449C176.393 71.0565 178.998 67.1296 182.097 63.7566L180.625 62.4034C177.378 65.9371 174.662 70.0368 172.476 74.6951L174.286 75.5449ZM182.106 63.7468C185.231 60.2548 188.627 57.2266 192.295 54.6592L191.148 53.0208C187.349 55.6801 183.838 58.8118 180.616 62.4132L182.106 63.7468ZM192.299 54.6564C196.125 51.9499 199.625 49.4767 202.798 47.237L201.644 45.603C198.471 47.8432 194.971 50.3168 191.144 53.0236L192.299 54.6564ZM202.798 47.237C206 44.9766 208.701 42.7988 210.892 40.7026L209.51 39.2574C207.408 41.2679 204.789 43.3834 201.644 45.603L202.798 47.237ZM210.892 40.7026C213.189 38.5059 214.421 36.0188 214.421 33.26H212.421C212.421 35.3545 211.507 37.3474 209.51 39.2574L210.892 40.7026ZM214.421 33.26C214.421 29.5599 213.154 26.6888 210.483 24.8731L209.359 26.5269C211.355 27.8845 212.421 30.0535 212.421 33.26H214.421ZM210.499 24.884C208.099 23.184 205.472 22.32 202.641 22.32V24.32C205.037 24.32 207.263 25.0426 209.343 26.516L210.499 24.884ZM202.641 22.32C200.242 22.32 198.021 22.8717 195.999 23.9838L196.963 25.7362C198.674 24.795 200.561 24.32 202.641 24.32V22.32ZM196.015 23.9751C194.154 24.9546 192.567 26.1406 191.268 27.5395L192.734 28.9005C193.861 27.6861 195.261 26.6321 196.947 25.7449L196.015 23.9751ZM191.313 27.494C189.625 29.0931 187.938 30.117 186.254 30.6222L186.828 32.5378C188.878 31.923 190.83 30.7069 192.689 28.9459L191.313 27.494ZM186.287 30.6129C184.93 30.9698 183.438 30.5911 181.729 29.1381L180.433 30.6619C182.457 32.3822 184.605 33.1235 186.796 32.5471L186.287 30.6129ZM181.703 29.1172L176.243 24.7772L174.999 26.3428L180.459 30.6828L181.703 29.1172ZM176.244 24.7774C174.288 23.222 173.298 21.7328 173.034 20.3341C172.775 18.9673 173.171 17.4772 174.454 15.8097L172.868 14.5903C171.351 16.5628 170.674 18.6194 171.069 20.7059C171.457 22.7606 172.847 24.6313 174.999 26.3426L176.244 24.7774ZM174.455 15.8074C175.629 14.2726 177.131 12.6318 178.97 10.885L177.592 9.435C175.698 11.2349 174.12 12.954 172.867 14.5925L174.455 15.8074ZM178.97 10.885C180.769 9.1762 182.892 7.63801 185.347 6.27415L184.375 4.52584C181.79 5.96198 179.527 7.59713 177.592 9.435L178.97 10.885ZM185.371 6.26028C187.807 4.81693 190.619 3.63498 193.816 2.72152L193.266 0.798473C189.93 1.75168 186.956 2.9964 184.351 4.5397L185.371 6.26028ZM193.833 2.71635C197.082 1.72362 200.761 1.21999 204.881 1.21999V-0.780008C200.601 -0.780008 196.72 -0.256968 193.249 0.803646L193.833 2.71635ZM204.881 1.21999C208.888 1.21999 212.85 1.81164 216.772 2.9972L217.35 1.08278C213.245 -0.158323 209.088 -0.780008 204.881 -0.780008V1.21999ZM216.778 2.99901C220.77 4.17867 224.345 5.99014 227.51 8.43178L228.732 6.84821C225.364 4.24985 221.565 2.32799 217.344 1.08097L216.778 2.99901ZM227.525 8.44274C230.656 10.7688 233.171 13.8164 235.067 17.6072L236.856 16.7128C234.831 12.6636 232.12 9.36451 228.717 6.83725L227.525 8.44274ZM235.08 17.6328C237.04 21.2849 238.041 25.6883 238.041 30.88H240.041C240.041 25.4317 238.989 20.6885 236.842 16.6872L235.08 17.6328ZM238.041 30.88C238.041 35.9743 237.041 40.383 235.075 44.136L236.847 45.064C238.988 40.977 240.041 36.2391 240.041 30.88H238.041ZM235.071 44.1441C233.159 47.8768 230.701 51.2456 227.694 54.2529L229.108 55.6671C232.261 52.5144 234.843 48.9765 236.851 45.0559L235.071 44.1441ZM227.694 54.2529C224.756 57.1913 221.542 59.8084 218.051 62.1046L219.151 63.7754C222.754 61.405 226.073 58.702 229.108 55.6671L227.694 54.2529ZM218.067 62.0945C214.52 64.335 211.205 66.4356 208.124 68.3963L209.198 70.0837C212.277 68.1244 215.589 66.025 219.135 63.7855L218.067 62.0945ZM208.124 68.3963C205.013 70.376 202.358 72.3185 200.165 74.2254L201.477 75.7346C203.578 73.9082 206.149 72.024 209.198 70.0837L208.124 68.3963ZM200.165 74.2254C197.887 76.206 196.54 78.4341 196.325 80.9134L198.317 81.0866C198.475 79.2726 199.462 77.4873 201.477 75.7346L200.165 74.2254ZM197.321 82H232.881V80H197.321V82ZM232.881 82C235.294 82 236.919 82.6025 237.949 83.6321C238.979 84.6618 239.581 86.2875 239.581 88.7H241.581C241.581 85.9792 240.9 83.7549 239.363 82.2179C237.826 80.6809 235.602 80 232.881 80V82ZM239.581 88.7V94.3H241.581V88.7H239.581ZM239.581 94.3C239.581 96.7125 238.979 98.3382 237.949 99.3679C236.919 100.398 235.294 101 232.881 101V103C235.602 103 237.826 102.319 239.363 100.782C240.9 99.2451 241.581 97.0208 241.581 94.3H239.581ZM232.881 101H178.421V103H232.881V101ZM178.421 101C176.183 101 174.413 100.402 173.037 99.2681L171.765 100.812C173.562 102.292 175.806 103 178.421 103V101ZM173.06 99.2874C171.839 98.2195 171.161 96.6152 171.161 94.3H169.161C169.161 97.0248 169.976 99.2471 171.743 100.793L173.06 99.2874ZM171.161 94.3V91.22H169.161V94.3H171.161ZM254.592 75.12L255.497 75.5449L254.592 75.12ZM262.572 63.08L263.308 63.7567L263.317 63.7468L262.572 63.08ZM272.932 53.84L273.505 54.6592L273.509 54.6564L272.932 53.84ZM283.432 46.42L284.009 47.237L283.432 46.42ZM291.412 39.98L292.103 40.7026L291.412 39.98ZM291.132 25.7L290.554 26.516L290.562 26.5215L290.57 26.5269L291.132 25.7ZM277.692 24.86L278.158 25.7449L278.166 25.7406L278.174 25.7362L277.692 24.86ZM273.212 28.22L273.9 28.9459L273.923 28.9239L273.945 28.9005L273.212 28.22ZM267.752 31.58L268.007 32.5471L268.023 32.5427L268.039 32.5378L267.752 31.58ZM262.292 29.9L262.94 29.1381L262.927 29.1274L262.914 29.1172L262.292 29.9ZM256.832 25.56L256.21 26.3426L256.21 26.3428L256.832 25.56ZM254.872 15.2L255.665 15.8097L255.666 15.8074L254.872 15.2ZM266.072 5.39999L266.558 6.27415L266.57 6.26738L266.582 6.26028L266.072 5.39999ZM274.752 1.76L275.027 2.72152L275.036 2.71901L275.044 2.71635L274.752 1.76ZM298.272 2.03999L297.983 2.99722L297.989 2.99901L298.272 2.03999ZM309.332 7.64L308.721 8.43178L308.728 8.43732L308.736 8.44274L309.332 7.64ZM317.172 17.16L316.278 17.6072L316.284 17.6201L316.291 17.6328L317.172 17.16ZM317.172 44.6L316.286 44.136L316.282 44.1441L317.172 44.6ZM309.612 54.96L308.905 54.2529L309.612 54.96ZM299.812 62.94L300.346 63.7855L300.354 63.7805L300.362 63.7754L299.812 62.94ZM289.872 69.24L290.409 70.0837L289.872 69.24ZM282.032 74.98L282.688 75.7346L282.032 74.98ZM278.532 81L277.536 80.9134L277.441 82H278.532V81ZM253.612 100.04L252.954 100.793L252.965 100.802L252.976 100.812L253.612 100.04ZM252.372 91.22C252.372 85.1753 253.425 79.9594 255.497 75.5449L253.687 74.6951C251.466 79.4273 250.372 84.9447 250.372 91.22H252.372ZM255.497 75.5449C257.604 71.0565 260.209 67.1296 263.308 63.7566L261.836 62.4034C258.589 65.9371 255.873 70.0368 253.687 74.6951L255.497 75.5449ZM263.317 63.7468C266.442 60.2548 269.838 57.2266 273.505 54.6592L272.359 53.0208C268.56 55.6801 265.049 58.8118 261.827 62.4132L263.317 63.7468ZM273.509 54.6564C277.336 51.9499 280.836 49.4767 284.009 47.237L282.855 45.603C279.682 47.8432 276.181 50.3168 272.355 53.0236L273.509 54.6564ZM284.009 47.237C287.211 44.9766 289.912 42.7988 292.103 40.7026L290.721 39.2574C288.619 41.2679 286 43.3834 282.855 45.603L284.009 47.237ZM292.103 40.7026C294.4 38.5059 295.632 36.0188 295.632 33.26H293.632C293.632 35.3545 292.718 37.3474 290.721 39.2574L292.103 40.7026ZM295.632 33.26C295.632 29.5599 294.365 26.6888 291.694 24.8731L290.57 26.5269C292.566 27.8845 293.632 30.0535 293.632 33.26H295.632ZM291.71 24.884C289.31 23.184 286.683 22.32 283.852 22.32V24.32C286.247 24.32 288.474 25.0426 290.554 26.516L291.71 24.884ZM283.852 22.32C281.453 22.32 279.232 22.8717 277.21 23.9838L278.174 25.7362C279.885 24.795 281.772 24.32 283.852 24.32V22.32ZM277.226 23.9751C275.365 24.9546 273.778 26.1406 272.479 27.5395L273.945 28.9005C275.072 27.6861 276.472 26.6321 278.158 25.7449L277.226 23.9751ZM272.524 27.494C270.836 29.0931 269.148 30.117 267.465 30.6222L268.039 32.5378C270.089 31.923 272.041 30.7069 273.9 28.9459L272.524 27.494ZM267.498 30.6129C266.141 30.9698 264.649 30.5911 262.94 29.1381L261.644 30.6619C263.668 32.3822 265.816 33.1235 268.007 32.5471L267.498 30.6129ZM262.914 29.1172L257.454 24.7772L256.21 26.3428L261.67 30.6828L262.914 29.1172ZM257.455 24.7774C255.499 23.222 254.509 21.7328 254.245 20.3341C253.986 18.9673 254.382 17.4772 255.665 15.8097L254.079 14.5903C252.562 16.5628 251.885 18.6194 252.279 20.7059C252.668 22.7606 254.058 24.6313 256.21 26.3426L257.455 24.7774ZM255.666 15.8074C256.84 14.2726 258.342 12.6318 260.181 10.885L258.803 9.435C256.909 11.2349 255.331 12.954 254.078 14.5925L255.666 15.8074ZM260.181 10.885C261.98 9.1762 264.103 7.63801 266.558 6.27415L265.586 4.52584C263.001 5.96198 260.738 7.59713 258.803 9.435L260.181 10.885ZM266.582 6.26028C269.017 4.81693 271.83 3.63498 275.027 2.72152L274.477 0.798473C271.141 1.75168 268.167 2.9964 265.562 4.5397L266.582 6.26028ZM275.044 2.71635C278.293 1.72362 281.972 1.21999 286.092 1.21999V-0.780008C281.812 -0.780008 277.931 -0.256968 274.46 0.803646L275.044 2.71635ZM286.092 1.21999C290.099 1.21999 294.061 1.81164 297.983 2.9972L298.561 1.08278C294.456 -0.158323 290.299 -0.780008 286.092 -0.780008V1.21999ZM297.989 2.99901C301.981 4.17867 305.556 5.99014 308.721 8.43178L309.943 6.84821C306.575 4.24985 302.776 2.32799 298.555 1.08097L297.989 2.99901ZM308.736 8.44274C311.867 10.7688 314.382 13.8164 316.278 17.6072L318.066 16.7128C316.042 12.6636 313.33 9.36451 309.928 6.83725L308.736 8.44274ZM316.291 17.6328C318.251 21.2849 319.252 25.6883 319.252 30.88H321.252C321.252 25.4317 320.2 20.6885 318.053 16.6872L316.291 17.6328ZM319.252 30.88C319.252 35.9743 318.252 40.383 316.286 44.136L318.058 45.064C320.199 40.977 321.252 36.2391 321.252 30.88H319.252ZM316.282 44.1441C314.37 47.8768 311.912 51.2456 308.905 54.2529L310.319 55.6671C313.472 52.5144 316.054 48.9765 318.062 45.0559L316.282 44.1441ZM308.905 54.2529C305.967 57.1913 302.753 59.8084 299.262 62.1046L300.362 63.7754C303.965 61.405 307.284 58.702 310.319 55.6671L308.905 54.2529ZM299.278 62.0945C295.731 64.335 292.416 66.4356 289.335 68.3963L290.409 70.0837C293.488 68.1244 296.8 66.025 300.346 63.7855L299.278 62.0945ZM289.335 68.3963C286.224 70.376 283.569 72.3185 281.376 74.2254L282.688 75.7346C284.789 73.9082 287.36 72.024 290.409 70.0837L289.335 68.3963ZM281.376 74.2254C279.098 76.206 277.751 78.4341 277.536 80.9134L279.528 81.0866C279.686 79.2726 280.673 77.4873 282.688 75.7346L281.376 74.2254ZM278.532 82H314.092V80H278.532V82ZM314.092 82C316.505 82 318.13 82.6025 319.16 83.6321C320.19 84.6618 320.792 86.2875 320.792 88.7H322.792C322.792 85.9792 322.111 83.7549 320.574 82.2179C319.037 80.6809 316.813 80 314.092 80V82ZM320.792 88.7V94.3H322.792V88.7H320.792ZM320.792 94.3C320.792 96.7125 320.19 98.3382 319.16 99.3679C318.13 100.398 316.505 101 314.092 101V103C316.813 103 319.037 102.319 320.574 100.782C322.111 99.2451 322.792 97.0208 322.792 94.3H320.792ZM314.092 101H259.632V103H314.092V101ZM259.632 101C257.393 101 255.624 100.402 254.248 99.2681L252.976 100.812C254.773 102.292 257.017 103 259.632 103V101ZM254.271 99.2874C253.05 98.2195 252.372 96.6152 252.372 94.3H250.372C250.372 97.0248 251.187 99.2471 252.954 100.793L254.271 99.2874ZM252.372 94.3V91.22H250.372V94.3H252.372Z" fill="#00CE54" mask="url(#path-1-outside-1_1343_14731)"/>
</svg>
