<svg width="311" height="218" viewBox="0 0 311 218" fill="none" xmlns="http://www.w3.org/2000/svg">
<g filter="url(#filter0_d_3655_6050)">
<path d="M106 135.5C106 126.3 115.667 120.667 120.5 119L117 151C113.333 149.667 106 144.7 106 135.5Z" fill="black"/>
<path d="M171 145.375C171 138.475 178.667 134.25 182.5 133L179.724 157C176.816 156 171 152.275 171 145.375Z" fill="black"/>
<path d="M178 148.125C178 145.825 180.333 144.417 181.5 144L180.655 152C179.77 151.667 178 150.425 178 148.125Z" fill="white"/>
<path d="M114 139.156C114 136.281 117 134.521 118.5 134L117.414 144C116.276 143.583 114 142.031 114 139.156Z" fill="white"/>
<path d="M61.2117 131.8C61.2117 126.667 62.1117 121.9 63.9117 117.5C65.7117 113.033 68.2451 109.167 71.5117 105.9C74.8451 102.567 78.8117 99.9667 83.4117 98.1C88.0117 96.2333 93.0784 95.3 98.6117 95.3C104.145 95.3 109.212 96.2333 113.812 98.1C118.412 99.9667 122.345 102.567 125.612 105.9C128.945 109.167 131.512 113.033 133.312 117.5C135.112 121.9 136.012 126.667 136.012 131.8C136.012 137.067 135.112 141.967 133.312 146.5C131.512 151.033 128.945 155 125.612 158.4C122.345 161.733 118.412 164.367 113.812 166.3C109.212 168.233 104.145 169.2 98.6117 169.2C93.0784 169.2 88.0117 168.233 83.4117 166.3C78.8117 164.367 74.8451 161.733 71.5117 158.4C68.2451 155 65.7117 151.033 63.9117 146.5C62.1117 141.967 61.2117 137.067 61.2117 131.8ZM79.3117 131.8C79.3117 134.867 79.7784 137.7 80.7117 140.3C81.7117 142.9 83.0451 145.167 84.7117 147.1C86.4451 148.967 88.4784 150.467 90.8117 151.6C93.2117 152.667 95.8117 153.2 98.6117 153.2C101.412 153.2 103.978 152.667 106.312 151.6C108.712 150.467 110.745 148.967 112.412 147.1C114.145 145.167 115.478 142.9 116.412 140.3C117.412 137.7 117.912 134.867 117.912 131.8C117.912 128.867 117.412 126.167 116.412 123.7C115.478 121.167 114.145 119 112.412 117.2C110.745 115.333 108.712 113.9 106.312 112.9C103.978 111.833 101.412 111.3 98.6117 111.3C95.8117 111.3 93.2117 111.833 90.8117 112.9C88.4784 113.9 86.4451 115.333 84.7117 117.2C83.0451 119 81.7117 121.167 80.7117 123.7C79.7784 126.167 79.3117 128.867 79.3117 131.8ZM140.388 142.4C140.388 138.333 141.154 134.633 142.688 131.3C144.221 127.967 146.288 125.133 148.888 122.8C151.554 120.4 154.654 118.567 158.188 117.3C161.721 115.967 165.488 115.3 169.488 115.3C173.554 115.3 177.354 115.967 180.888 117.3C184.488 118.567 187.588 120.4 190.188 122.8C192.854 125.133 194.954 127.967 196.488 131.3C198.021 134.633 198.788 138.333 198.788 142.4C198.788 146.4 198.021 150.067 196.488 153.4C194.954 156.667 192.854 159.5 190.188 161.9C187.588 164.233 184.521 166.033 180.988 167.3C177.454 168.567 173.654 169.2 169.588 169.2C165.521 169.2 161.721 168.567 158.188 167.3C154.654 166.033 151.554 164.233 148.888 161.9C146.288 159.5 144.221 156.667 142.688 153.4C141.154 150.067 140.388 146.4 140.388 142.4ZM157.888 142.4C157.888 144.333 158.188 146.067 158.788 147.6C159.454 149.133 160.321 150.433 161.388 151.5C162.454 152.567 163.688 153.4 165.088 154C166.488 154.533 167.988 154.8 169.588 154.8C171.188 154.8 172.688 154.533 174.088 154C175.488 153.4 176.721 152.567 177.788 151.5C178.854 150.433 179.688 149.133 180.288 147.6C180.954 146.067 181.288 144.333 181.288 142.4C181.288 140.467 180.954 138.733 180.288 137.2C179.688 135.6 178.854 134.267 177.788 133.2C176.721 132.067 175.488 131.2 174.088 130.6C172.688 130 171.188 129.7 169.588 129.7C167.988 129.7 166.488 130 165.088 130.6C163.688 131.2 162.454 132.067 161.388 133.2C160.321 134.267 159.454 135.6 158.788 137.2C158.188 138.733 157.888 140.467 157.888 142.4ZM206.18 122C206.18 118.333 208.014 116.5 211.68 116.5H216.18C217.98 116.5 219.347 116.933 220.28 117.8C221.214 118.6 221.68 119.667 221.68 121V122.1C221.68 122.233 221.647 122.367 221.58 122.5C221.58 122.567 221.58 122.667 221.58 122.8V123.1H221.78C222.78 121.7 224.014 120.4 225.48 119.2C226.747 118.267 228.347 117.4 230.28 116.6C232.214 115.733 234.58 115.3 237.38 115.3C240.847 115.3 244.014 115.967 246.88 117.3C249.747 118.567 252.18 120.4 254.18 122.8C256.247 125.2 257.814 128.067 258.88 131.4C260.014 134.667 260.58 138.3 260.58 142.3C260.58 146.367 259.98 150.067 258.78 153.4C257.58 156.667 255.88 159.5 253.68 161.9C251.547 164.233 249.014 166.033 246.08 167.3C243.147 168.567 239.98 169.2 236.58 169.2C234.247 169.2 232.247 168.9 230.58 168.3C228.98 167.7 227.647 167.033 226.58 166.3C225.38 165.433 224.347 164.433 223.48 163.3H223.28C223.28 163.633 223.314 164.033 223.38 164.5C223.38 164.9 223.38 165.367 223.38 165.9C223.447 166.433 223.48 167.033 223.48 167.7V182.5C223.48 186.167 221.647 188 217.98 188H211.68C208.014 188 206.18 186.167 206.18 182.5V122ZM222.98 142.6C222.98 144.133 223.18 145.667 223.58 147.2C223.98 148.667 224.614 149.967 225.48 151.1C226.347 152.233 227.38 153.167 228.58 153.9C229.847 154.567 231.347 154.9 233.08 154.9C235.814 154.9 238.18 153.867 240.18 151.8C242.18 149.667 243.18 146.6 243.18 142.6C243.18 138.733 242.247 135.667 240.38 133.4C238.514 131.067 236.08 129.9 233.08 129.9C231.747 129.9 230.48 130.167 229.28 130.7C228.08 131.167 227.014 131.933 226.08 133C225.147 134 224.38 135.3 223.78 136.9C223.247 138.5 222.98 140.4 222.98 142.6ZM268.092 164.5C266.559 163.633 265.692 162.533 265.492 161.2C265.359 159.867 265.759 158.433 266.692 156.9L268.192 154.6C269.192 153.133 270.259 152.3 271.392 152.1C272.592 151.9 274.059 152.2 275.792 153C277.059 153.533 278.492 154.133 280.092 154.8C281.692 155.4 283.526 155.7 285.592 155.7C287.326 155.7 288.526 155.433 289.192 154.9C289.926 154.3 290.292 153.6 290.292 152.8C290.292 151.8 289.692 151 288.492 150.4C287.292 149.8 285.792 149.233 283.992 148.7C282.259 148.1 280.326 147.467 278.192 146.8C276.126 146.067 274.192 145.1 272.392 143.9C270.659 142.633 269.192 141.033 267.992 139.1C266.792 137.1 266.192 134.6 266.192 131.6C266.192 128.933 266.726 126.6 267.792 124.6C268.926 122.533 270.459 120.833 272.392 119.5C274.326 118.1 276.592 117.067 279.192 116.4C281.792 115.667 284.592 115.3 287.592 115.3C290.859 115.3 293.692 115.667 296.092 116.4C298.559 117.133 300.592 117.867 302.192 118.6C303.726 119.333 304.626 120.367 304.892 121.7C305.159 123.033 304.926 124.467 304.192 126L302.992 128.4C302.259 130 301.292 130.967 300.092 131.3C298.892 131.633 297.426 131.467 295.692 130.8C294.492 130.333 293.159 129.9 291.692 129.5C290.226 129.033 288.626 128.8 286.892 128.8C285.026 128.8 283.792 129.067 283.192 129.6C282.592 130.133 282.292 130.767 282.292 131.5C282.292 132.5 282.892 133.3 284.092 133.9C285.292 134.433 286.759 135 288.492 135.6C290.292 136.133 292.226 136.733 294.292 137.4C296.426 138.067 298.359 139.033 300.092 140.3C301.892 141.5 303.392 143.067 304.592 145C305.792 146.867 306.392 149.3 306.392 152.3C306.392 154.7 305.892 156.933 304.892 159C303.959 161.067 302.559 162.867 300.692 164.4C298.892 165.867 296.659 167.033 293.992 167.9C291.392 168.767 288.459 169.2 285.192 169.2C281.326 169.2 277.959 168.7 275.092 167.7C272.226 166.633 269.892 165.567 268.092 164.5Z" fill="#00CE54"/>
<path d="M94.0157 194.609C93.7776 197.998 96.2779 200.781 99.6117 201.023C100.921 201.144 102.112 200.781 103.184 200.055C111.161 194.125 121.52 190.495 133.188 191.221C135.926 191.342 138.546 191.947 141.165 192.794C140.927 192.794 140.689 192.794 140.451 192.673C135.926 192.431 131.997 192.673 127.83 193.641C126.044 194.004 123.425 196.061 123.306 198.603C123.187 201.507 124.853 203.202 127.711 203.686C127.83 203.686 132.831 204.775 135.926 205.743C138.903 206.711 142.951 207.921 145.094 208.89C146.285 209.495 147.714 209.858 149.143 209.979C154.739 210.342 159.62 205.985 159.977 200.297C160.216 196.667 158.549 193.278 155.81 191.221C148.309 184.928 138.784 180.692 128.068 180.087C115.924 179.361 104.732 183.233 96.397 190.252C94.9682 191.221 94.1348 192.794 94.0157 194.609Z" fill="#00CE54"/>
<path d="M173.233 60.8825C169.235 70.9261 162.742 81.7532 155.283 91.2354C150.882 96.4617 148.386 97.2448 145.299 94.3683C141.059 91.3047 137.757 82.4532 139.474 79.1677C145.779 69.4984 152.273 58.6717 159.732 49.1895C164.32 42.8057 167.97 42.2096 171.057 45.0861C175.297 48.1497 175.701 52.9669 173.233 60.8825Z" fill="#00CE54"/>
<path d="M28.8477 61.6617C36.4356 65.3047 42.8849 68.7632 50.2822 73.5816C53.5069 75.3107 55.212 79.2061 58.246 82.1107C62.0374 87.5506 60.7031 95.7781 54.2486 99.5565C51.5905 101.538 44.76 100.43 41.9165 96.3504C37.9346 92.0859 32.8141 87.6368 27.6938 83.1877C25.7981 80.4677 22.5734 78.7385 20.6778 76.0186C16.6959 71.754 16.1292 68.0433 19.1684 63.7111C20.6881 61.545 23.1556 60.7386 28.8477 61.6617Z" fill="#00CE54"/>
<path d="M115.201 62.3899C113.294 66.8606 111.387 71.3311 109.669 74.6374C107.762 79.1082 104.119 79.7126 98.5495 77.6145C94.1318 75.7031 92.0173 74.1652 92.7726 69.5077C93.7166 63.6858 94.6608 57.8641 96.5677 53.3933C97.5117 47.5715 99.7962 40.7719 101.892 35.1368C102.27 32.808 102.458 31.6437 102.836 29.3149C103.402 25.8218 106.083 23.8666 109.538 24.4268C113.182 23.8227 115.108 26.5248 115.882 29.0403C116.467 32.7201 118.203 36.5867 117.637 40.0798C117.656 47.2528 116.523 54.2393 115.201 62.3899Z" fill="#00CE54"/>
</g>
<defs>
<filter id="filter0_d_3655_6050" x="13.2344" y="24.332" width="297.156" height="193.668" filterUnits="userSpaceOnUse" color-interpolation-filters="sRGB">
<feFlood flood-opacity="0" result="BackgroundImageFix"/>
<feColorMatrix in="SourceAlpha" type="matrix" values="0 0 0 0 0 0 0 0 0 0 0 0 0 0 0 0 0 0 127 0" result="hardAlpha"/>
<feOffset dy="4"/>
<feGaussianBlur stdDeviation="2"/>
<feComposite in2="hardAlpha" operator="out"/>
<feColorMatrix type="matrix" values="0 0 0 0 0 0 0 0 0 0 0 0 0 0 0 0 0 0 0.25 0"/>
<feBlend mode="normal" in2="BackgroundImageFix" result="effect1_dropShadow_3655_6050"/>
<feBlend mode="normal" in="SourceGraphic" in2="effect1_dropShadow_3655_6050" result="shape"/>
</filter>
</defs>
</svg>
