<svg width="41" height="38" viewBox="0 0 41 38" fill="none" xmlns="http://www.w3.org/2000/svg">
<g clip-path="url(#clip0_1343_14560)">
<path d="M32.0672 11.1217V8.27514C32.0672 5.75301 30.0282 3.70703 27.5121 3.70703H27.3793C24.8632 3.70703 22.8242 5.75185 22.8242 8.27514V11.1889" stroke="#00CE54" stroke-width="1.6"/>
<path d="M34.2149 15.0524C32.2036 14.0167 29.6437 13.4988 27.4383 13.5C24.9431 13.4977 21.9499 14.2125 19.8555 15.5402" stroke="#00CE54" stroke-width="1.6"/>
<path d="M34.8242 37.0729V25.9648" stroke="#00CE54" stroke-width="1.6"/>
<path d="M13.636 0.927734H13.5043C10.9886 0.927734 8.94922 2.97295 8.94922 5.49584V7.48158C8.94922 10.0045 10.9886 12.0497 13.5043 12.0497H13.636C16.1516 12.0497 18.191 10.0045 18.191 7.48158V5.49584C18.191 2.97295 16.1516 0.927734 13.636 0.927734Z" stroke="#00CE54" stroke-width="1.6"/>
<path d="M6.17578 37.0734V22.2441" stroke="#00CE54" stroke-width="1.6"/>
<path d="M20.9609 22.5918L20.9621 37.0735" stroke="#00CE54" stroke-width="1.6"/>
<path d="M6.17627 32.624L5.09729 32.8314C2.98554 32.8314 0.925781 29.6072 0.925781 28.5877C0.925781 27.5682 1.78527 22.729 2.68287 20.4432H2.67363C4.55202 15.7013 8.49711 14.8301 13.5708 14.8301C18.1917 14.8301 19.8853 15.4893 21.8884 16.2504C23.9863 17.0475 27.0488 18.074 27.0488 18.074C28.4016 18.4505 28.8186 18.2802 29.5025 17.8654C30.4036 17.3186 32.5292 15.9179 32.5292 15.9179C36.554 12.9672 39.4293 17.3209 35.81 19.9276L31.3081 23.3673C30.0189 24.2084 28.5472 24.5201 27.2498 24.2443C25.4003 23.8504 22.8138 23.0568 20.9643 22.5934" stroke="#00CE54" stroke-width="1.6"/>
<path d="M34.8242 32.6235L35.9032 32.8309C38.0149 32.8309 40.0747 29.6067 40.0747 28.5872C40.0747 27.5677 39.2152 22.7285 38.3176 20.4427H38.3269C38.1443 19.9828 37.5401 18.4222 37.3195 18.0098" stroke="#00CE54" stroke-width="1.6"/>
</g>
<defs>
<clipPath id="clip0_1343_14560">
<rect width="41" height="38" fill="white"/>
</clipPath>
</defs>
</svg>
