<svg width="137" height="60" viewBox="0 0 137 60" fill="none" xmlns="http://www.w3.org/2000/svg">
<g clip-path="url(#clip0_1343_14578)">
<path d="M72.1396 17.7308C72.1396 23.5701 72.1396 29.4096 72.1396 35.2489C72.1396 36.0831 72.1396 36.9172 72.1396 37.7514C72.1396 39.4198 72.1397 41.9225 68.8596 42.7566C66.3996 43.5908 63.9396 41.9225 63.1196 39.4199C59.8395 34.4147 59.0195 28.5752 59.0195 23.57C59.0195 17.7306 59.0195 12.7254 59.8395 6.88605C59.8395 3.54927 61.4795 1.04678 64.7596 0.212582C68.8596 -0.621615 70.4997 1.04678 72.9597 4.38356C74.5997 9.38874 72.9596 13.5598 72.1396 17.7308Z" fill="#00A945"/>
<path d="M113.883 36.3756C114.719 33.8518 115.556 31.328 117.229 28.8041C118.902 24.5977 121.411 19.55 123.921 15.3436C124.757 12.8197 126.43 11.9785 128.939 11.9785C131.449 11.9785 133.122 12.82 134.795 14.5025C137.304 18.7089 138.141 22.9151 134.795 27.9628C131.449 32.1692 129.776 36.3756 127.266 40.582C126.43 42.2646 125.594 43.1059 123.921 44.7884C121.411 47.3123 117.229 47.3124 116.392 43.106C113.883 40.5822 113.883 38.8995 113.883 36.3756Z" fill="#00A945"/>
<path d="M4.77787 31.6074C6.43973 32.4478 7.27074 33.2881 8.10168 33.2881C13.0873 39.1711 17.2419 44.2136 22.2275 50.0966C23.0585 51.7774 23.8894 54.2988 23.8894 55.9797C23.8894 59.3414 21.3966 61.0222 18.0729 59.3413C10.5945 55.1392 4.77787 49.2562 0.6232 41.6924C-0.207733 40.0115 -0.207733 36.6499 0.6232 34.1286C0.6232 34.1286 3.116 33.2883 4.77787 31.6074Z" fill="#00A945"/>
</g>
<defs>
<clipPath id="clip0_1343_14578">
<rect width="137" height="60" fill="white"/>
</clipPath>
</defs>
</svg>
