<svg width="47" height="40" viewBox="0 0 47 40" fill="none" xmlns="http://www.w3.org/2000/svg">
<g clip-path="url(#clip0_1343_14588)">
<path d="M7.92488 18.0572L6.49171 13.5791C7.2638 11.2023 7.42044 9.64012 6.49171 8.16573C5.51858 6.62061 4.0003 5.99988 3.06911 6.13524C2.22302 8.22183 1.07722 13.8596 1.01555 14.9328C0.951415 16.0487 0.939082 24.3316 1.70007 25.084C2.53753 25.9121 10.9343 34.2145 11.7718 35.0426C12.6092 35.8706 12.6475 36.5548 12.6475 37.073V39.0243" stroke="#00CE54" stroke-width="1.6"/>
<path d="M13.334 28.4692C13.334 28.4692 7.85912 23.0558 7.1746 22.3789C4.43652 19.6716 7.85912 16.2887 10.5972 18.9948C11.2817 19.6716 12.8 21.1728 14.7043 23.0558C15.2741 23.6192 17.7125 23.3228 18.6166 24.2168C19.0186 24.6143 21.1141 26.6863 22.0392 27.6009C22.9642 28.5155 23.5019 30.246 23.5019 31.2216V36.0997" stroke="#00CE54" stroke-width="1.6"/>
<path d="M40.8061 7.74655C39.8984 3.43313 36.0774 1.01362 32.2774 0.977036C27.5992 0.930694 23.5463 4.29289 23.5007 8.78191C23.4538 4.29289 19.4022 0.930694 14.7241 0.977036C10.9228 1.01484 7.10307 3.43313 6.19531 7.74655" stroke="#00CE54" stroke-width="1.6"/>
<path d="M39.078 18.0572L40.5112 13.5791C39.7391 11.2023 39.5825 9.64012 40.5112 8.16573C41.4843 6.62061 43.0026 5.99988 43.9338 6.13524C44.7799 8.22183 45.9257 13.8596 45.9874 14.9328C46.0515 16.0487 46.0638 24.3316 45.3029 25.084C44.4654 25.9121 36.0686 34.2145 35.2312 35.0426C34.3937 35.8706 34.3555 36.5548 34.3555 37.073V39.0243" stroke="#00CE54" stroke-width="1.6"/>
<path d="M33.6679 28.4692C33.6679 28.4692 39.1428 23.0558 39.8273 22.3789C42.5654 19.6716 39.1428 16.2887 36.4047 18.9948C35.7202 19.6716 34.2019 21.1728 32.2976 23.0558C31.7278 23.6192 29.2894 23.3228 28.3854 24.2168C27.9833 24.6143 25.8878 26.6863 24.9628 27.6009C24.0377 28.5155 23.5 30.246 23.5 31.2216V36.0997" stroke="#00CE54" stroke-width="1.6"/>
</g>
<defs>
<clipPath id="clip0_1343_14588">
<rect width="47" height="40" fill="white"/>
</clipPath>
</defs>
</svg>
