<svg width="44" height="48" viewBox="0 0 44 48" fill="none" xmlns="http://www.w3.org/2000/svg">
<g clip-path="url(#clip0_1343_38624)">
<path d="M6.2549 8.17567C6.1213 10.072 7.52408 11.6297 9.39445 11.7652C10.1292 11.8329 10.7972 11.6297 11.3984 11.2234C15.8739 7.90477 21.6855 5.87299 28.2318 6.27935C29.7681 6.34707 31.2377 6.6857 32.7073 7.15978C32.5737 7.15978 32.4401 7.15977 32.3065 7.09205C29.7681 6.9566 27.5638 7.09206 25.2258 7.63387C24.2238 7.83705 22.7542 8.98838 22.6874 10.4106C22.6206 12.0361 23.5558 12.9842 25.159 13.2551C25.2258 13.2551 28.0314 13.8647 29.7681 14.4065C31.4381 14.9483 33.7093 15.6255 34.9117 16.1674C35.5797 16.506 36.3812 16.7092 37.1828 16.7769C40.3224 16.9801 43.0611 14.5419 43.2615 11.3588C43.3951 9.32703 42.46 7.43069 40.9236 6.27935C36.7152 2.75758 31.3713 0.38716 25.3594 0.0485289C18.5459 -0.357828 12.2668 1.80941 7.59088 5.73752C6.78929 6.27933 6.3217 7.15978 6.2549 8.17567Z" fill="#00CE54"/>
<path d="M5.25323 30.6613C6.656 29.4422 8.39278 28.765 10.2632 28.765C10.3967 28.765 10.5303 28.765 10.6639 28.765C10.0628 27.2073 9.72876 25.5141 9.66196 23.6855C9.46156 18.4706 11.9331 13.7297 15.9411 10.7498C14.6051 11.4271 13.4695 12.172 12.4675 12.8493C12.3339 12.917 12.2003 12.9848 12.0667 13.0525C11.1983 13.5266 10.2631 13.7298 9.32796 13.662C6.7896 13.5266 4.78563 11.4948 4.51844 9.05664C0.644097 14.5425 -0.95908 21.5183 0.577297 28.2232C1.11169 30.5936 1.91328 32.7608 2.91526 34.7249C3.18246 33.1672 4.05084 31.7449 5.25323 30.6613Z" fill="#00CE54"/>
<path d="M41.4568 39.3299C41.5904 37.4335 40.1876 35.8758 38.3172 35.7404C37.5824 35.6727 36.9145 35.8758 36.3133 36.2822C31.8377 39.6008 26.0262 41.6325 19.4799 41.2262C17.9435 41.1585 16.474 40.8198 15.0044 40.3458C15.138 40.3458 15.2716 40.3458 15.4052 40.4135C17.9435 40.5489 20.1479 40.4135 22.4859 39.8717C23.4879 39.6685 24.9574 38.5172 25.0242 37.0949C25.091 35.4695 24.1558 34.5213 22.5527 34.2504C22.4859 34.2504 19.6803 33.6409 17.9435 33.099C16.2736 32.5572 14.0024 31.88 12.8 31.3382C12.132 30.9996 11.3304 30.7964 10.5289 30.7286C7.3893 30.5255 4.65054 32.9636 4.45014 36.1467C4.31654 38.1785 5.25173 40.0748 6.78811 41.2262C10.8628 44.8157 16.2736 47.1861 22.2855 47.5925C29.099 47.9988 35.3781 45.8316 40.054 41.9035C40.8556 41.2262 41.39 40.3458 41.4568 39.3299Z" fill="white"/>
<path d="M42.3934 35.1299V28.696V26.8674V26.1224C42.3934 24.8356 41.3246 23.752 40.0554 23.752H32.3067C31.0375 23.752 29.9688 24.8356 29.9688 26.1224V28.696C29.9688 29.9828 31.0375 31.0664 32.3067 31.0664H34.9119V34.7913C34.9787 34.7913 34.9787 34.7236 35.0455 34.7236C35.1791 34.6559 35.3127 34.5204 35.4463 34.5204C36.3147 34.0463 37.3166 33.8432 38.3186 33.9109C39.9886 34.0463 41.3914 34.859 42.3266 36.1458C42.3266 35.7395 42.3934 35.4008 42.3934 35.1299Z" fill="#00CE54"/>
</g>
<defs>
<clipPath id="clip0_1343_38624">
<rect width="44" height="48" fill="white"/>
</clipPath>
</defs>
</svg>
