<svg width="40" height="40" viewBox="0 0 40 40" fill="none" xmlns="http://www.w3.org/2000/svg">
<path d="M23.334 5V11.6667C23.334 12.1087 23.5096 12.5326 23.8221 12.8452C24.1347 13.1577 24.5586 13.3333 25.0007 13.3333H31.6673" stroke="black" stroke-width="1.2" stroke-linecap="round" stroke-linejoin="round"/>
<path d="M20.0007 18.3333V28.3333M28.334 35H11.6673C10.7833 35 9.93542 34.6488 9.3103 34.0237C8.68517 33.3986 8.33398 32.5507 8.33398 31.6667V8.33333C8.33398 7.44928 8.68517 6.60143 9.3103 5.97631C9.93542 5.35119 10.7833 5 11.6673 5H23.334L31.6673 13.3333V31.6667C31.6673 32.5507 31.3161 33.3986 30.691 34.0237C30.0659 34.6488 29.218 35 28.334 35Z" stroke="#58585B" stroke-width="1.2" stroke-linecap="round" stroke-linejoin="round"/>
<path d="M15.834 22.5007L20.0007 18.334L24.1673 22.5007" stroke="#58585B" stroke-width="1.2" stroke-linecap="round" stroke-linejoin="round"/>
</svg>
