<svg width="42" height="40" viewBox="0 0 42 40" fill="none" xmlns="http://www.w3.org/2000/svg">
<g clip-path="url(#clip0_1343_14513)">
<path d="M35.875 18.2617V22.6095" stroke="#00CE54" stroke-width="1.6"/>
<path d="M38.5 18.2617V22.6095" stroke="#00CE54" stroke-width="1.6"/>
<path d="M41.1233 18.2617V24.3487C41.1233 25.5954 40.3566 26.2487 39.5712 26.6074C38.9227 26.9041 38.5431 27.5824 38.5934 28.29L39.3722 37.3922C39.3722 38.1389 39.1534 39.1313 37.1847 39.1313C35.2159 39.1313 34.9972 38.1389 34.9972 37.3922L35.7759 28.29C35.8262 27.5824 35.4467 26.9041 34.7981 26.6074C34.0128 26.2487 33.2461 25.5954 33.2461 24.3487V18.2617" stroke="#00CE54" stroke-width="1.6"/>
<path d="M29.75 37.3917C29.75 38.2917 29.0872 39.1309 28 39.1309C26.9128 39.1309 26.25 38.2917 26.25 37.3917V30.4352L24.5 28.6961C24.5 28.6961 25.1759 25.0809 25.4909 23.0983C25.8945 20.5591 27.5625 19.1309 28.875 19.1309C29.75 19.1309 29.75 20.0004 29.75 20.0004V37.3917Z" stroke="#00CE54" stroke-width="1.6"/>
<path d="M17.5 0.869141L0.875 8.69523L17.5 16.5213L34.125 8.69523L17.5 0.869141Z" stroke="#00CE54" stroke-width="1.6"/>
<path d="M8.50781 12.287L25.1328 4.46094" stroke="#00CE54" stroke-width="1.6"/>
<path d="M17.5 16.5215V33.9128" stroke="#00CE54" stroke-width="1.6"/>
<path d="M34.125 15.6518V8.69531" stroke="#00CE54" stroke-width="1.6"/>
<path d="M0.875 8.69531V26.0866L17.5 33.9127L21.8947 31.8442" stroke="#00CE54" stroke-width="1.6"/>
</g>
<defs>
<clipPath id="clip0_1343_14513">
<rect width="42" height="40" fill="white"/>
</clipPath>
</defs>
</svg>
