<svg width="95" height="40" viewBox="0 0 95 40" fill="none" xmlns="http://www.w3.org/2000/svg">
<g clip-path="url(#clip0_1343_15459)">
<path d="M5.2574 6.81306C5.14508 8.39334 6.32441 9.69142 7.89685 9.80429C8.51459 9.86073 9.07617 9.69142 9.5816 9.35279C13.3442 6.58731 18.23 4.89416 23.7335 5.23279C25.0252 5.28923 26.2607 5.57141 27.4961 5.96648C27.3838 5.96648 27.2715 5.96648 27.1592 5.91004C25.0252 5.79716 23.1719 5.91005 21.2064 6.36156C20.364 6.53087 19.1285 7.49031 19.0724 8.67552C19.0162 10.03 19.8024 10.8202 21.1502 11.0459C21.2064 11.0459 23.5651 11.5539 25.0252 12.0054C26.4291 12.4569 28.3385 13.0213 29.3494 13.4728C29.911 13.755 30.5849 13.9243 31.2588 13.9808C33.8982 14.1501 36.2007 12.1183 36.3692 9.46568C36.4815 7.77252 35.6953 6.19224 34.4036 5.23279C30.8656 2.29799 26.373 0.322633 21.3187 0.0404407C15.5906 -0.29819 10.3117 1.50784 6.38057 4.78127C5.70667 5.23278 5.31356 5.96648 5.2574 6.81306Z" fill="white"/>
<path d="M4.41643 25.5508C5.59576 24.5349 7.05588 23.9705 8.62831 23.9705C8.74063 23.9705 8.85294 23.9705 8.96526 23.9705C8.45984 22.6724 8.17904 21.2614 8.12288 19.7376C7.95441 15.3918 10.0323 11.4411 13.4018 8.95784C12.2786 9.52222 11.3239 10.143 10.4815 10.7074C10.3692 10.7639 10.2569 10.8203 10.1446 10.8768C9.41453 11.2718 8.62831 11.4411 7.84209 11.3847C5.70807 11.2718 4.02332 9.57866 3.79869 7.54688C0.541497 12.1184 -0.806306 17.9316 0.485338 23.519C0.934605 25.4943 1.60851 27.3004 2.45088 28.9371C2.67552 27.639 3.40558 26.4538 4.41643 25.5508Z" fill="white"/>
<path d="M34.8529 32.7752C34.9652 31.1949 33.7859 29.8969 32.2134 29.784C31.5957 29.7275 31.0341 29.8968 30.5287 30.2355C26.7661 33.001 21.8803 34.6941 16.3767 34.3555C15.0851 34.299 13.8496 34.0169 12.6141 33.6218C12.7264 33.6218 12.8388 33.6218 12.9511 33.6782C15.0851 33.7911 16.9383 33.6782 18.9039 33.2267C19.7463 33.0574 20.9817 32.098 21.0379 30.9127C21.0941 29.5582 20.3078 28.7681 18.96 28.5423C18.9039 28.5423 16.5452 28.0344 15.0851 27.5829C13.6811 27.1314 11.7718 26.567 10.7609 26.1155C10.1993 25.8333 9.52542 25.664 8.85152 25.6075C6.21207 25.4382 3.90957 27.47 3.7411 30.1226C3.62878 31.8158 4.415 33.396 5.70664 34.3555C9.13231 37.3467 13.6811 39.3221 18.7354 39.6607C24.4636 39.9993 29.7425 38.1933 33.6735 34.9199C34.3474 34.3555 34.7967 33.6218 34.8529 32.7752Z" fill="white"/>
<path d="M39.6289 34.1293C39.6289 35.5967 40.4151 36.3869 41.8752 36.3869H44.5147C45.9748 36.3869 46.761 35.5967 46.761 34.1293V9.23996C46.761 7.77256 45.9748 6.98242 44.5147 6.98242H41.8752C40.4151 6.98242 39.6289 7.77256 39.6289 9.23996V34.1293Z" fill="white"/>
<path d="M50.5781 34.1295C50.5781 35.5969 51.3643 36.3871 52.8245 36.3871H55.4639C56.924 36.3871 57.7102 35.5969 57.7102 34.1295V25.4945H64.3931C65.8532 25.4945 66.6394 24.7043 66.6394 23.2369V21.6002C66.6394 20.1328 65.8532 19.3427 64.3931 19.3427H57.7102V13.1909H66.2463C67.7064 13.1909 68.4927 12.4007 68.4927 10.9333V9.2966C68.4927 7.8292 67.7064 7.03906 66.2463 7.03906H52.8245C51.3643 7.03906 50.5781 7.8292 50.5781 9.2966V34.1295Z" fill="white"/>
<path d="M78.9956 34.1293C78.9956 35.5967 79.7818 36.3869 81.2419 36.3869H83.8814C85.3415 36.3869 86.1277 35.5967 86.1277 34.1293V13.1342H92.7544C94.2145 13.1342 95.0008 12.3441 95.0008 10.8767V9.23996C95.0008 7.77256 94.2145 6.98242 92.7544 6.98242H72.3127C70.8526 6.98242 70.0664 7.77256 70.0664 9.23996V10.8767C70.0664 12.3441 70.8526 13.1342 72.3127 13.1342H78.9394V34.1293H78.9956Z" fill="white"/>
<path d="M35.6408 29.2746V23.913V22.3891V21.7683C35.6408 20.696 34.7422 19.793 33.6752 19.793H27.1609C26.0938 19.793 25.1953 20.696 25.1953 21.7683V23.913C25.1953 24.9853 26.0938 25.8883 27.1609 25.8883H29.351V28.9924C29.4072 28.9924 29.4072 28.936 29.4634 28.936C29.5757 28.8796 29.688 28.7667 29.8003 28.7667C30.5304 28.3716 31.3727 28.2023 32.2151 28.2587C33.6191 28.3716 34.7984 29.0489 35.5846 30.1212C35.5846 29.7826 35.6408 29.5004 35.6408 29.2746Z" fill="white"/>
</g>
<defs>
<clipPath id="clip0_1343_15459">
<rect width="95" height="40" fill="white"/>
</clipPath>
</defs>
</svg>
