<svg width="38" height="38" viewBox="0 0 38 38" fill="none" xmlns="http://www.w3.org/2000/svg">
<g clip-path="url(#clip0_1343_14531)">
<path d="M18.4062 37.4062H0.59375" stroke="#00CE54" stroke-width="1.6"/>
<path d="M13.6562 4.75C17.0095 4.75 18.4062 5.9375 18.4062 5.9375V19C18.4062 19 17.0095 17.8125 13.6562 17.8125C10.303 17.8125 8.90625 19 8.90625 19V5.9375C8.90625 5.9375 10.303 4.75 13.6562 4.75Z" stroke="#00CE54" stroke-width="1.6"/>
<path d="M13.6562 26.7188C17.0095 26.7188 18.4062 27.9062 18.4062 27.9062V33.25H8.90625V27.9062C8.90625 27.9062 10.303 26.7188 13.6562 26.7188Z" stroke="#00CE54" stroke-width="1.6"/>
<path d="M23.75 19.5938V0.59375H3.5625V37.4062" stroke="#00CE54" stroke-width="1.6"/>
<path d="M10.6866 23.1556C9.8925 22.9567 9.03156 22.7667 8.31164 23.1556C7.77281 23.448 7.01727 23.5326 6.48438 23.3797" stroke="#00CE54" stroke-width="1.6"/>
<path d="M33.25 23.75H36.8125L37.4062 37.4062H23.1562L23.75 23.75H29.0938" stroke="#00CE54" stroke-width="1.6"/>
<path d="M27.3125 26.125V21.9688C27.3125 20.3359 28.6484 19 30.2812 19C31.9141 19 33.25 20.3359 33.25 21.9688V26.125" stroke="#00CE54" stroke-width="1.6"/>
</g>
<defs>
<clipPath id="clip0_1343_14531">
<rect width="38" height="38" fill="white"/>
</clipPath>
</defs>
</svg>
