<svg width="204" height="196" viewBox="0 0 204 196" fill="none" xmlns="http://www.w3.org/2000/svg">
<path d="M93.0991 78.0621C98.1135 84.4334 103.128 90.8047 108.142 97.1759C108.859 98.0861 109.575 98.9962 110.291 99.9064C111.724 101.727 113.873 104.457 111.458 108.593C109.826 111.923 106.045 112.522 103.113 110.597C95.6832 108.362 89.8857 102.797 85.5877 97.336C80.5733 90.9647 76.2752 85.5037 72.0436 78.3261C69.1783 74.6853 68.5951 70.342 71.0102 66.2061C74.2082 61.2638 77.2066 61.4713 82.4205 62.6927C88.2843 66.5409 90.3003 72.7048 93.0991 78.0621Z" fill="#00CE54"/>
<path d="M148.958 57.3557C147.589 53.7793 146.221 50.2029 145.651 45.804C143.636 39.5692 141.697 31.5938 140.481 24.5363C139.112 20.96 139.987 18.397 142.382 15.9291C144.778 13.4612 147.098 12.7341 150.14 12.9247C156.148 15.0463 160.558 18.813 161.698 27.611C162.116 35.491 164.131 41.7258 165.348 48.7832C165.994 51.4416 165.918 53.1821 165.765 56.6632C165.537 61.8848 161.544 65.9981 157.133 62.2312C152.57 61.9453 151.125 60.1094 148.958 57.3557Z" fill="#00CE54"/>
<path d="M40.7059 159.448C43.0142 158.73 44.5291 158.83 45.3224 158.013C55.134 159.529 63.4306 160.945 73.2421 162.46C75.4788 163.477 78.4372 165.411 79.8806 167.245C82.7673 170.913 81.8308 175.198 77.2143 176.633C66.4662 179.403 55.8613 178.704 45.3996 174.537C43.163 173.52 40.2763 169.853 38.9045 166.284C38.9045 166.284 40.5627 162.916 40.7059 159.448Z" fill="#00CE54"/>
</svg>
