<svg width="68" height="52" viewBox="0 0 68 52" fill="none" xmlns="http://www.w3.org/2000/svg">
<path d="M60.99 44.6797C56.5624 48.9495 49.634 51.2093 39.5452 51.4878V39.0419C44.0368 38.7918 47.3242 37.964 49.522 36.0158C51.8155 33.9828 52.8147 30.8306 52.9257 26.2287L52.938 25.7167H52.4258H39.5452L39.5452 0.5H67.5V24.9167C67.5 33.8428 65.4851 40.3448 60.99 44.6797ZM21.7519 44.6807C17.3517 48.9493 10.4786 51.2085 0.5 51.4876V39.0413C4.88876 38.7904 8.17179 37.9619 10.3672 36.0158C12.6625 33.9811 13.6613 30.8263 13.6613 26.2167V25.7167H13.1613H0.5V0.5H28.2355L28.2355 24.9167C28.2355 33.8428 26.2206 40.3456 21.7519 44.6807Z" stroke="#00A945"/>
</svg>
