<svg width="38" height="40" viewBox="0 0 38 40" fill="none" xmlns="http://www.w3.org/2000/svg">
<g clip-path="url(#clip0_1343_14547)">
<path d="M0.859375 2.66619C0.859375 2.66619 2.91282 4.56124 3.27134 5.57933C3.62986 6.59741 3.17366 7.65835 3.81234 9.22624C4.53368 10.998 4.95231 11.4704 5.57167 12.9892C6.28227 14.7316 6.40357 17.3772 7.448 19.7217C8.03194 20.4377 10.4246 19.8116 10.6521 17.9385C10.8797 16.0633 10.1627 15.0368 10.3011 13.8985C10.3892 13.1721 10.6521 12.4749 10.9087 11.9335C11.0536 11.6282 11.6826 11.5101 12.1989 11.4892C13.5192 11.4359 16.9853 11.4014 16.9853 11.4014L22.5778 12.9526L26.7716 16.033C27.7688 16.6998 29.0741 16.242 29.4477 15.3609C29.8201 14.4797 29.4584 13.5693 28.6286 12.9045L24.9769 9.68406L20.7659 6.29846C20.7659 6.29846 13.15 2.99753 12.1485 2.32752C11.1652 1.66901 10.9913 0.835938 10.9913 0.835938" stroke="#00CE54" stroke-width="1.6"/>
<path d="M18.1836 11.7324L21.7151 15.2184C21.7151 15.2184 23.2694 17.5577 24.0648 18.5883C24.6863 19.3931 25.9691 19.6011 26.8461 18.8705C27.5835 18.2559 27.7177 17.0936 26.9169 16.1204" stroke="#00CE54" stroke-width="1.6"/>
<path d="M13.6953 11.4492L17.0712 15.2257C17.0712 15.2257 18.5579 17.3382 19.2932 18.4096C20.0285 19.481 21.0804 19.7705 22.04 19.1465C22.9997 18.5225 23.0748 17.2734 22.5145 16.4048" stroke="#00CE54" stroke-width="1.6"/>
<path d="M37.1416 39.1629C37.1416 39.1629 35.4767 36.9344 35.3157 35.8703C35.1536 34.8063 35.8009 33.8436 35.466 32.1889C35.0882 30.319 34.7651 29.7796 34.4409 28.1772C34.0684 26.3386 34.4452 23.715 33.857 21.2252C33.4169 20.4172 30.948 20.6085 30.3727 22.4095C29.7973 24.2136 30.3104 25.3498 29.9605 26.4432C29.7372 27.1414 29.3486 27.7811 28.9944 28.2671C28.7947 28.542 28.1539 28.5462 27.643 28.4751C26.3345 28.2933 22.9199 27.7121 22.9199 27.7121L17.7117 25.193L14.1651 21.4186C13.3096 20.5855 11.94 20.804 11.4086 21.6036C10.8773 22.4032 11.063 23.3628 11.7542 24.1645L14.7416 27.9797L18.2484 32.0562C18.2484 32.0562 25.1183 36.6553 25.977 37.4915C26.8207 38.3131 26.8357 39.164 26.8357 39.164" stroke="#00CE54" stroke-width="1.6"/>
<path d="M22.9112 27.7083L20.7762 25.4004C20.7762 25.4004 19.574 22.9639 18.9546 22.2792C18.0894 21.3406 17.1105 21.3584 16.0972 21.4723C15.0839 21.5862 14.6523 21.9364 14.6523 21.9364" stroke="#00CE54" stroke-width="1.6"/>
</g>
<defs>
<clipPath id="clip0_1343_14547">
<rect width="38" height="40" fill="white"/>
</clipPath>
</defs>
</svg>
