<svg width="80" height="80" viewBox="0 0 80 80" fill="none" xmlns="http://www.w3.org/2000/svg">
<path d="M52.4741 77.0521C43.5363 79.469 34.668 81.0535 26.3449 77.0835C12.9497 70.694 2.06226 60.7982 0.785463 44.0274C0.237942 36.8357 0.395764 30.7696 1.98779 25.5052C3.5745 20.2585 6.59536 15.7778 11.8341 11.7713C12.0295 11.6219 12.2234 11.4736 12.4159 11.3263C17.1139 7.73132 20.9727 4.77853 25.0614 2.86457C29.2907 0.884811 33.7725 0.0161221 39.6735 0.768795C41.0476 0.944054 42.4278 1.0855 43.807 1.22686C52.2939 2.09665 60.7462 2.96289 67.5271 11.6812C68.1967 12.542 68.8769 13.3732 69.5552 14.2021C73.5965 19.1402 77.5715 23.9975 78.8282 34.5591C79.5669 40.7668 79.7673 45.089 79.0691 49.1942C78.3718 53.2946 76.7714 57.2154 73.8464 62.6041C70.0496 69.5987 63.5182 74.0656 52.4741 77.0521Z" fill="#E5F8ED" stroke="#00CE54"/>
</svg>
