<svg width="16" height="16" viewBox="0 0 16 16" fill="none" xmlns="http://www.w3.org/2000/svg">
<path d="M13.25 7C13.25 10.75 8 14.25 8 14.25C8 14.25 2.75 10.75 2.75 7C2.75 5.60761 3.30312 4.27226 4.28769 3.28769C5.27226 2.30312 6.60761 1.75 8 1.75C9.39239 1.75 10.7277 2.30312 11.7123 3.28769C12.6969 4.27226 13.25 5.60761 13.25 7V7Z" stroke="white" stroke-width="1.2" stroke-linecap="round" stroke-linejoin="round"/>
<path d="M8 8.25C8.69036 8.25 9.25 7.69036 9.25 7C9.25 6.30964 8.69036 5.75 8 5.75C7.30964 5.75 6.75 6.30964 6.75 7C6.75 7.69036 7.30964 8.25 8 8.25Z" stroke="white" stroke-width="1.2" stroke-linecap="round" stroke-linejoin="round"/>
</svg>
