<svg width="113" height="48" viewBox="0 0 113 48" fill="none" xmlns="http://www.w3.org/2000/svg">
<g clip-path="url(#clip0_1343_31676)">
<path d="M6.2588 8.17567C6.1252 10.072 7.52798 11.6297 9.39835 11.7652C10.1331 11.8329 10.8011 11.6297 11.4023 11.2234C15.8779 7.90477 21.6894 5.87299 28.2357 6.27935C29.772 6.34707 31.2416 6.6857 32.7112 7.15978C32.5776 7.15978 32.444 7.15977 32.3104 7.09205C29.772 6.9566 27.5677 7.09206 25.2297 7.63387C24.2277 7.83705 22.7582 8.98838 22.6914 10.4106C22.6246 12.0361 23.5597 12.9842 25.1629 13.2551C25.2297 13.2551 28.0353 13.8647 29.772 14.4065C31.442 14.9483 33.7132 15.6255 34.9156 16.1674C35.5836 16.506 36.3851 16.7092 37.1867 16.7769C40.3263 16.9801 43.065 14.5419 43.2654 11.3588C43.399 9.32703 42.4639 7.43069 40.9275 6.27935C36.7191 2.75758 31.3752 0.38716 25.3633 0.0485289C18.5498 -0.357828 12.2707 1.80941 7.59478 5.73752C6.79319 6.27933 6.3256 7.15978 6.2588 8.17567Z" fill="#00CE54"/>
<path d="M5.25323 30.6613C6.656 29.4422 8.39278 28.765 10.2632 28.765C10.3967 28.765 10.5303 28.765 10.6639 28.765C10.0628 27.2073 9.72876 25.5141 9.66196 23.6855C9.46156 18.4706 11.9331 13.7297 15.9411 10.7498C14.6051 11.4271 13.4695 12.172 12.4675 12.8493C12.3339 12.917 12.2003 12.9848 12.0667 13.0525C11.1983 13.5266 10.2631 13.7298 9.32796 13.662C6.7896 13.5266 4.78563 11.4948 4.51844 9.05664C0.644097 14.5425 -0.95908 21.5183 0.577297 28.2232C1.11169 30.5936 1.91328 32.7608 2.91526 34.7249C3.18246 33.1672 4.05084 31.7449 5.25323 30.6613Z" fill="#00CE54"/>
<path d="M41.4568 39.3299C41.5904 37.4335 40.1876 35.8758 38.3172 35.7404C37.5824 35.6727 36.9145 35.8758 36.3133 36.2822C31.8377 39.6008 26.0262 41.6325 19.4799 41.2262C17.9435 41.1585 16.474 40.8198 15.0044 40.3458C15.138 40.3458 15.2716 40.3458 15.4052 40.4135C17.9435 40.5489 20.1479 40.4135 22.4859 39.8717C23.4879 39.6685 24.9574 38.5172 25.0242 37.0949C25.091 35.4695 24.1558 34.5213 22.5527 34.2504C22.4859 34.2504 19.6803 33.6409 17.9435 33.099C16.2736 32.5572 14.0024 31.88 12.8 31.3382C12.132 30.9996 11.3304 30.7964 10.5289 30.7286C7.3893 30.5255 4.65054 32.9636 4.45014 36.1467C4.31654 38.1785 5.25173 40.0748 6.78811 41.2262C10.8628 44.8157 16.2736 47.1861 22.2855 47.5925C29.099 47.9988 35.3781 45.8316 40.054 41.9035C40.8556 41.2262 41.39 40.3458 41.4568 39.3299Z" fill="#654595"/>
<path d="M47.1406 40.9552C47.1406 42.7161 48.0758 43.6643 49.8126 43.6643H52.9521C54.6889 43.6643 55.6241 42.7161 55.6241 40.9552V11.088C55.6241 9.32707 54.6889 8.37891 52.9521 8.37891H49.8126C48.0758 8.37891 47.1406 9.32707 47.1406 11.088V40.9552Z" fill="#00CE54"/>
<path d="M60.1562 40.9558C60.1562 42.7167 61.0914 43.6649 62.8282 43.6649H65.9678C67.7045 43.6649 68.6397 42.7167 68.6397 40.9558V30.5937H76.5888C78.3256 30.5937 79.2608 29.6456 79.2608 27.8847V25.9206C79.2608 24.1598 78.3256 23.2116 76.5888 23.2116H68.6397V15.8294H78.7932C80.5299 15.8294 81.4651 14.8812 81.4651 13.1204V11.1563C81.4651 9.39543 80.5299 8.44727 78.7932 8.44727H62.8282C61.0914 8.44727 60.1562 9.39543 60.1562 11.1563V40.9558Z" fill="#00CE54"/>
<path d="M93.9648 40.9552C93.9648 42.7161 94.9 43.6643 96.6367 43.6643H99.7763C101.513 43.6643 102.448 42.7161 102.448 40.9552V15.7611H110.331C112.067 15.7611 113.002 14.8129 113.002 13.052V11.088C113.002 9.32707 112.067 8.37891 110.331 8.37891H86.0157C84.2789 8.37891 83.3438 9.32707 83.3438 11.088V13.052C83.3438 14.8129 84.2789 15.7611 86.0157 15.7611H93.898V40.9552H93.9648Z" fill="#00CE54"/>
<path d="M42.3934 35.1299V28.696V26.8674V26.1224C42.3934 24.8356 41.3246 23.752 40.0554 23.752H32.3067C31.0375 23.752 29.9688 24.8356 29.9688 26.1224V28.696C29.9688 29.9828 31.0375 31.0664 32.3067 31.0664H34.9119V34.7913C34.9787 34.7913 34.9787 34.7236 35.0455 34.7236C35.1791 34.6559 35.3127 34.5204 35.4463 34.5204C36.3147 34.0463 37.3166 33.8432 38.3186 33.9109C39.9886 34.0463 41.3914 34.859 42.3266 36.1458C42.3266 35.7395 42.3934 35.4008 42.3934 35.1299Z" fill="#00CE54"/>
</g>
<defs>
<clipPath id="clip0_1343_31676">
<rect width="113" height="48" fill="white"/>
</clipPath>
</defs>
</svg>
