<svg width="290" height="290" viewBox="0 0 290 290" fill="none" xmlns="http://www.w3.org/2000/svg">
<mask id="mask0_4144_6037" style="mask-type:alpha" maskUnits="userSpaceOnUse" x="0" y="0" width="290" height="290">
<path d="M190.561 280.581C158.149 289.345 125.576 295.228 94.9353 280.612C46.1574 257.345 6.21704 221.151 1.53859 159.699C-0.450213 133.576 0.107751 111.393 5.94944 92.0765C11.7858 72.7775 22.9058 56.3089 42.1014 41.6286C42.8295 41.0717 43.5522 40.5187 44.2697 39.9697C61.2449 26.9795 75.3376 16.1953 90.2912 9.19537C105.85 1.91218 122.347 -1.27464 143.983 1.48493C148.912 2.11363 153.882 2.62114 158.864 3.12991C189.634 6.27187 220.873 9.46181 245.822 41.5384C248.231 44.6358 250.686 47.6345 253.139 50.6318C267.816 68.5606 282.453 86.4412 287.056 125.122C289.736 147.651 290.483 163.474 287.92 178.549C285.357 193.619 279.478 207.979 268.847 227.566C254.851 253.349 230.797 269.701 190.561 280.581Z" fill="#E5F8ED" stroke="#00CE54"/>
</mask>
<g mask="url(#mask0_4144_6037)">
<rect x="0.5" y="0.5" width="289" height="289" rx="7.5" fill="url(#paint0_linear_4144_6037)" stroke="#00CE54"/>
</g>
<defs>
<linearGradient id="paint0_linear_4144_6037" x1="145" y1="0" x2="145" y2="290" gradientUnits="userSpaceOnUse">
<stop stop-opacity="0"/>
<stop offset="1" stop-opacity="0.48"/>
</linearGradient>
</defs>
</svg>
