<svg width="72" height="73" viewBox="0 0 72 73" fill="none" xmlns="http://www.w3.org/2000/svg">
<path d="M50.4322 46.2631L45.1211 51.5527L65.0329 71.3841L70.344 66.0945L50.4322 46.2631Z" fill="#D6C6EE" stroke="#654595" stroke-width="1.6"/>
<path d="M43.791 42.293L49.0991 47.5796" stroke="#654595" stroke-width="1.6"/>
<path d="M46.4448 50.2222L41.1367 44.9355" stroke="#654595" stroke-width="1.6"/>
<path d="M50.4263 25.7731C50.4263 39.2805 39.4385 50.2239 25.8763 50.2239C12.314 50.2239 1.32617 39.2805 1.32617 25.7731C1.32617 12.2656 12.314 1.32227 25.8763 1.32227C39.4385 1.32227 50.4263 12.2656 50.4263 25.7731Z" fill="#D6C6EE" stroke="#654595" stroke-width="1.6"/>
<path d="M45.1187 25.7735C45.1187 36.36 36.5062 44.9376 25.8767 44.9376C15.2472 44.9376 6.63477 36.36 6.63477 25.7735C6.63477 15.187 15.2472 6.60938 25.8767 6.60938C36.5062 6.60938 45.1187 15.187 45.1187 25.7735Z" fill="white" stroke="#654595" stroke-width="1.6"/>
<path d="M12.3418 22.4683C13.775 16.6001 18.9637 12.199 25.214 11.9082" stroke="#654595" stroke-width="1.6"/>
<path d="M12.3415 29.0776C12.0761 28.0203 11.9434 26.9101 11.9434 25.7734" stroke="#654595" stroke-width="1.6"/>
</svg>
