<svg width="16" height="16" viewBox="0 0 16 16" fill="none" xmlns="http://www.w3.org/2000/svg">
<path d="M9.33333 10V11.3333C9.33333 11.5101 9.2631 11.6797 9.13807 11.8047C9.01305 11.9298 8.84348 12 8.66667 12H4L2 14V7.33333C2 7.15652 2.07024 6.98695 2.19526 6.86193C2.32029 6.7369 2.48986 6.66667 2.66667 6.66667H4M14 9.33333L12 7.33333H7.33333C7.15652 7.33333 6.98695 7.2631 6.86193 7.13807C6.7369 7.01305 6.66667 6.84348 6.66667 6.66667V2.66667C6.66667 2.48986 6.7369 2.32029 6.86193 2.19526C6.98695 2.07024 7.15652 2 7.33333 2H13.3333C13.5101 2 13.6797 2.07024 13.8047 2.19526C13.9298 2.32029 14 2.48986 14 2.66667V9.33333Z" stroke="#654595" stroke-width="1.2" stroke-linecap="round" stroke-linejoin="round"/>
</svg>
