<svg width="205" height="142" viewBox="0 0 205 142" fill="none" xmlns="http://www.w3.org/2000/svg">
<path d="M196.171 102.614C188.869 111.733 178.956 120.677 168.616 127.789C162.647 131.592 160.036 131.417 158.171 127.087C155.294 122.088 155.348 111.28 158.12 108.463C167.447 100.682 177.36 91.7383 187.699 84.6255C194.255 79.6607 197.878 80.5051 199.743 84.835C202.62 89.8337 201.288 95.1497 196.171 102.614Z" fill="#00CE54"/>
<path d="M26.4879 5.93749C32.2887 12.915 37.0906 19.2329 42.2961 27.3901C44.6971 30.549 44.9086 35.4077 46.7142 39.7463C48.328 47.1041 44.1604 55.3622 36.785 56.7826C33.5967 57.8226 27.6041 53.8643 26.3938 48.3459C24.1847 42.1679 20.9767 35.3301 17.7689 28.4923C16.962 24.8134 14.561 21.6545 13.7542 17.9756C11.5451 11.7976 12.3323 7.59865 16.7114 4.19915C18.9009 2.4994 21.4939 2.63891 26.4879 5.93749Z" fill="#00CE54"/>
<path d="M107.724 66.0422C104.354 70.0496 100.985 74.0567 98.205 76.8955C94.8354 80.9029 91.2145 80.0699 86.7525 75.5644C83.3008 71.7262 81.8699 69.2227 84.229 64.5479C87.178 58.7044 90.127 52.861 93.4965 48.8536C96.4454 43.0101 100.995 36.6651 104.954 31.489C106.133 29.1516 106.723 27.9829 107.903 25.6455C109.672 22.1394 112.872 21.1367 115.904 23.1388C119.524 23.9722 120.366 27.6442 120.197 30.649C119.437 34.8224 119.689 39.6631 117.919 43.1692C115.391 50.8487 111.852 57.8613 107.724 66.0422Z" fill="#00CE54"/>
</svg>
